<?xml version="1.0" encoding="UTF-8"?> <svg xmlns="http://www.w3.org/2000/svg" width="24" height="25" viewBox="0 0 24 25" fill="none"><path fill-rule="evenodd" clip-rule="evenodd" d="M11.6989 2.34247C11.8946 2.27256 12.1085 2.27256 12.3043 2.34247L19.3043 4.84247C19.6625 4.9704 19.9016 5.30969 19.9016 5.69004V13.19C19.9016 16.0407 18.3334 18.2669 16.6586 19.7407C15.816 20.4822 14.9216 21.0569 14.1271 21.4499C13.3697 21.8245 12.5908 22.09 12.0016 22.09C11.4123 22.09 10.6334 21.8245 9.87598 21.4499C9.08151 21.0569 8.18715 20.4822 7.3445 19.7407C5.66972 18.2669 4.10156 16.0407 4.10156 13.19V5.69004C4.10156 5.30969 4.34067 4.9704 4.69886 4.84247L11.6989 2.34247ZM5.90156 6.32429V13.19C5.90156 15.3393 7.08341 17.1132 8.53363 18.3894C9.25347 19.0229 10.0154 19.5107 10.674 19.8365C11.3697 20.1806 11.8408 20.29 12.0016 20.29C12.1623 20.29 12.6334 20.1806 13.3291 19.8365C13.9878 19.5107 14.7497 19.0229 15.4695 18.3894C16.9197 17.1132 18.1016 15.3393 18.1016 13.19V6.32429L12.0016 4.14571L5.90156 6.32429Z" fill="#00FF93"></path><path fill-rule="evenodd" clip-rule="evenodd" d="M16.138 9.55364C16.4894 9.90512 16.4894 10.475 16.138 10.8264L11.638 15.3264C11.2865 15.6779 10.7166 15.6779 10.3652 15.3264L7.86517 12.8264C7.51369 12.475 7.51369 11.9051 7.86517 11.5536C8.21664 11.2022 8.78649 11.2022 9.13796 11.5536L11.0016 13.4172L14.8652 9.55364C15.2166 9.20217 15.7865 9.20217 16.138 9.55364Z" fill="#00FF93"></path></svg> 