<?xml version="1.0" encoding="UTF-8"?> <svg xmlns="http://www.w3.org/2000/svg" width="24" height="24" viewBox="0 0 24 24" fill="none"><path fill-rule="evenodd" clip-rule="evenodd" d="M15.5253 3.47266C15.5673 3.9275 15.4998 4.46421 15.3549 5.05045L15.3538 5.05502L14.4008 8.82709L16.4786 9.26236C17.6104 9.45918 18.6221 10.0106 18.9195 11.0952C19.1997 12.1174 18.7107 13.1853 17.9607 14.102L17.9547 14.1094L12.2697 20.7658L12.2598 20.7767C11.8723 21.2015 11.4775 21.5477 11.086 21.76C10.7258 21.9553 10.1314 22.1563 9.56288 21.8217C9.01444 21.4989 8.87856 20.8998 8.85004 20.4937C8.8186 20.046 8.88989 19.5177 9.03222 18.9417L9.91783 15.1199L7.7806 14.7362C7.77979 14.7361 7.77899 14.736 7.77818 14.7358C6.68605 14.5448 5.59817 14.0218 5.16976 12.9856C4.71948 11.8965 5.18319 10.724 6.11805 9.6851L6.12503 9.67735L6.13218 9.66976C6.89871 8.85665 7.44923 8.26423 7.78769 7.8887C8.17926 7.45423 8.64112 6.97006 9.16086 6.42521C9.31317 6.26553 9.47046 6.10065 9.6324 5.93027C10.3521 5.17316 11.1813 4.28959 12.1239 3.2253C12.4905 2.80515 12.8739 2.45971 13.2627 2.24532C13.6255 2.04529 14.2053 1.85192 14.7695 2.16067C15.3256 2.46501 15.4865 3.05174 15.5253 3.47266ZM13.6993 4.173C13.63 4.24242 13.5563 4.32145 13.4784 4.41077L13.4737 4.41613C12.5102 5.50406 11.6641 6.40555 10.9371 7.17039C10.7676 7.34867 10.6055 7.51858 10.4505 7.68112C9.93522 8.22132 9.49767 8.68003 9.12477 9.09378C8.77304 9.48403 8.21328 10.0862 7.44937 10.8966C6.71009 11.7212 6.77539 12.1581 6.8332 12.2979C6.91274 12.4903 7.2383 12.8144 8.08998 12.963L8.09431 12.9638L10.8465 13.4579C11.5051 13.5761 11.9412 14.2058 11.8236 14.8624C11.8196 14.8851 11.8149 14.9077 11.8095 14.9302L10.7811 19.3681C10.7402 19.5333 10.7093 19.6819 10.6873 19.8142C10.7601 19.744 10.8379 19.6641 10.9203 19.5741L16.5734 12.9552C17.1996 12.1871 17.2282 11.7341 17.1835 11.5711C17.1573 11.4756 17.0098 11.1789 16.1586 11.0338L16.1419 11.0309L13.4441 10.4657C12.7938 10.3377 12.368 9.70967 12.4885 9.0582C12.4925 9.03641 12.4971 9.01486 12.5023 8.99357L12.5044 8.98483L13.608 4.6165C13.6487 4.45141 13.6786 4.30375 13.6993 4.173Z" fill="#00FF93"></path></svg> 