<?xml version="1.0" encoding="UTF-8"?> <svg xmlns="http://www.w3.org/2000/svg" width="40" height="40" viewBox="0 0 40 40" fill="none"><rect width="40" height="40" rx="8" fill="#3C63C3"></rect><path d="M29.4227 18.5158C29.4227 18.5158 31.4576 18.62 31.4576 17.3958C31.4576 15.8333 28.7252 14.3908 28.7252 14.3908L29.4227 12.9742C29.8615 12.0233 30.2251 11.0394 30.5101 10.0317C30.5934 9.45917 30.4635 9.28167 30.4635 9.28167C30.276 10.5008 28.2936 14.0158 28.1378 14.1358C26.6687 13.5283 25.1196 13.1367 23.538 12.9742C23.538 12.9742 20.9515 7.5 18.5008 7.5C16.0501 7.5 16.081 12.1875 16.081 12.1875C16.081 12.1875 15.3943 10.8542 14.5202 10.8542C13.2611 10.8542 12.8495 12.7658 12.8495 14.8333C11.2416 14.838 9.64049 15.0426 8.0831 15.4425C7.89561 15.495 7.30814 15.9217 7.56313 15.8692C9.31303 15.4858 11.1104 15.3592 12.897 15.4942C13.022 17.4575 14.1719 20.015 14.1719 20.015C14.1719 20.015 11.7371 23.5875 11.7371 26.135C11.7371 26.8067 12.0287 28.0308 13.8186 28.0308C15.0349 27.9385 16.2144 27.5715 17.2684 26.9575C16.9967 27.405 16.8343 27.91 16.7951 28.4317C16.7951 28.7133 16.9617 29.505 18.1008 29.505C19.5633 29.505 21.1973 28.38 21.1973 28.38C21.1973 28.38 22.7581 30.9475 24.0647 32.125C24.2596 32.3067 24.498 32.4358 24.7571 32.5C24.7571 32.5 23.4455 31.2342 21.7181 27.9792C23.3264 26.99 24.9963 24.6458 24.9963 24.6458H26.7187C29.1069 24.6458 32.5 24.125 32.5 22.245C32.5 20.365 29.4243 18.5158 29.4243 18.5158H29.4227ZM29.6885 17.3383C29.6935 17.4275 29.6802 17.5167 29.6493 17.6008C29.6185 17.685 29.5702 17.7608 29.5077 17.825C29.4452 17.8892 29.371 17.94 29.2885 17.9733C29.206 18.0067 29.1169 18.0233 29.0277 18.0208L28.5077 18.0575C28.5077 18.0575 27.5553 17.5367 26.9828 17.3233L28.0811 15.5575C28.2636 15.6517 29.6885 16.5417 29.6885 17.3383ZM19.6974 10.2658C20.8165 10.2658 22.4189 12.9167 22.4189 12.9167C20.8373 12.8192 19.2599 13.1617 17.8609 13.9067C17.9284 11.995 18.5583 10.2658 19.6974 10.2658ZM15.2485 12.4167C15.6027 12.4167 15.951 12.8492 16.0968 13.2192C16.0968 13.4642 16.2218 14.8808 16.2218 14.8808L14.1402 14.8025C14.1402 12.9433 14.8685 12.4175 15.2277 12.4175L15.2485 12.4167ZM15.0352 25.3383C13.9111 25.3383 13.6769 24.7083 13.6769 24.1408C13.6769 22.865 14.7177 21.0733 14.7177 21.0733C14.7177 21.0733 15.8626 23.4792 17.84 24.5008C17.0034 25.0408 16.031 25.3308 15.0352 25.3383ZM18.6775 27.8592C17.8867 27.8592 17.7875 27.3383 17.7875 27.2292C17.8173 26.9428 17.9156 26.6678 18.0742 26.4275L19.4891 25.4325L20.4832 27.2917C19.934 27.6067 19.3237 27.8002 18.6933 27.8592H18.6775ZM21.139 26.8592C20.8275 26.3035 20.5495 25.7297 20.3065 25.1408C20.3065 25.1408 22.2789 25.2658 23.3405 24.1717C22.425 24.6078 21.4123 24.7998 20.4007 24.7292C22.3764 23.0642 24.1647 21.1883 25.7346 19.1358C25.4787 18.9075 25.1996 18.7067 24.9021 18.5367C24.1738 19.4792 21.1765 22.6358 18.45 24.2033C14.9685 22.3075 14.2402 16.7142 14.1619 15.5525L16.066 15.735C15.6744 16.405 15.423 17.1475 15.3268 17.9175C15.3268 18.85 15.441 18.9017 15.441 18.9017C15.4585 17.8617 15.801 16.8525 16.4193 16.0167C17.1842 20.09 17.98 22.1783 18.6 23.4175C18.9175 23.2875 19.5058 23.0267 19.5058 23.0267C19.5058 23.0267 17.7525 17.9592 17.8509 14.5267C18.8675 13.9792 20.0007 13.6842 21.1548 13.6675C23.3455 13.6967 25.5029 14.2108 27.472 15.1725L26.3687 16.735C26.3687 16.735 25.3904 14.9542 24.0013 14.6517C24.8579 15.2267 25.5412 16.0242 25.9787 16.9592C23.5447 16.06 21.0198 15.4275 18.4492 15.0742C18.3858 15.4067 18.3583 15.7458 18.3658 16.085C18.3658 16.085 23.0489 16.955 26.4837 18.9133C26.4579 23.1892 21.8006 26.4808 21.1548 26.8608L21.139 26.8592ZM25.6037 23.6458C26.517 22.3383 27.017 20.7875 27.0403 19.1925C27.0403 19.1925 29.3768 20.6667 29.3768 22.0833C29.3768 23.6825 25.6037 23.6458 25.6037 23.6458Z" fill="white"></path></svg> 