<?xml version="1.0" encoding="UTF-8"?> <svg xmlns="http://www.w3.org/2000/svg" width="40" height="40" viewBox="0 0 40 40" fill="none"><rect width="40" height="40" rx="8" fill="#367923"></rect><path d="M27.012 20.3113L28.1193 18.8076C27.7502 18.7298 27.4075 18.5743 27.0911 18.3669C26.7748 18.1335 26.6166 17.7706 26.643 17.3817C26.6166 16.9928 26.8275 16.6298 27.1439 16.4224C27.5657 16.1632 28.0666 16.0595 28.5675 16.0854C30.5184 16.0854 31.0193 17.0965 31.362 17.5113L32.4166 16.0854C32.232 15.8002 32.0211 15.5409 31.7575 15.3335C31.0457 14.7891 29.9648 14.5039 28.5411 14.5039C27.302 14.5039 26.3266 14.7632 25.6148 15.3076C24.9293 15.8261 24.5339 16.6298 24.5602 17.4854C24.5602 18.9113 25.3775 19.8187 27.012 20.3113ZM32.3902 20.2335C31.8893 19.7928 31.1511 19.4817 30.123 19.2224L28.9893 20.7521C29.5693 20.8558 30.123 21.0891 30.6239 21.4261C30.9402 21.6335 31.1248 21.9965 31.0984 22.3854C31.1248 22.8261 30.9139 23.2669 30.5448 23.5261C30.0702 23.8113 29.4902 23.9669 28.9366 23.915C27.302 23.915 26.5375 23.3965 25.773 21.9965L24.6393 23.5002C24.8502 23.915 25.1402 24.2521 25.483 24.5372C26.2739 25.1854 27.4075 25.4965 28.8575 25.4965C30.2284 25.4965 31.283 25.2113 32.0475 24.6409C32.812 24.0706 33.2339 23.1891 33.1811 22.2558C33.2866 21.5039 32.9702 20.7521 32.3902 20.2335ZM22.7411 25.2632H22.2666V14.7372H22.7411V25.2632ZM9.00568 14.6854C9.16386 14.6854 9.29568 14.7372 9.40114 14.8669C9.58568 15.2039 9.58568 15.5928 9.37477 15.9039C9.26932 16.0335 9.08477 16.1113 8.92659 16.0854V15.7743C9.03205 15.7743 9.1375 15.7484 9.19023 15.6706C9.24295 15.5669 9.26932 15.4632 9.26932 15.3595C9.26932 15.2817 9.24295 15.178 9.21659 15.1002C9.16386 15.0484 9.11114 14.9965 9.03205 15.0224C8.97932 15.0224 8.90023 15.0484 8.87386 15.1002C8.82114 15.178 8.79477 15.2817 8.76841 15.3854L8.74205 15.5409C8.71568 15.6965 8.66295 15.8261 8.5575 15.9558C8.47841 16.0595 8.34659 16.0854 8.21477 16.0854C8.08295 16.0854 7.95114 16.0335 7.84568 15.9298C7.76659 15.7484 7.71386 15.5928 7.71386 15.4113C7.71386 15.2298 7.74023 15.0484 7.87205 14.8928C7.9775 14.7632 8.13568 14.7113 8.29386 14.7113V15.0224C8.18841 15.0484 8.10932 15.0743 8.05659 15.1521C8.00386 15.2298 7.9775 15.3335 8.00386 15.4113C8.00386 15.4891 8.03023 15.5669 8.05659 15.6446C8.08295 15.6965 8.16205 15.7224 8.21477 15.7224C8.2675 15.7224 8.34659 15.6965 8.37295 15.6446C8.42568 15.5669 8.45205 15.4891 8.47841 15.3854L8.50477 15.2298C8.50477 15.0743 8.58386 14.9446 8.66295 14.815C8.76841 14.7113 8.87386 14.6595 9.00568 14.6854ZM8.66295 23.9928C8.5575 24.1224 8.50477 24.278 8.47841 24.4335L8.45205 24.5891C8.42568 24.6928 8.39932 24.7706 8.34659 24.8484C8.32023 24.9002 8.24114 24.9261 8.18841 24.9261C8.13568 24.9261 8.05659 24.9002 8.03023 24.8484C7.9775 24.7706 7.9775 24.6928 7.9775 24.615C7.9775 24.5113 8.00386 24.4076 8.05659 24.3298C8.10932 24.278 8.18841 24.2261 8.2675 24.2261V23.915C8.10932 23.915 7.95114 23.9928 7.84568 24.0965C7.74023 24.2521 7.6875 24.4335 7.6875 24.615C7.6875 24.7706 7.71386 24.9521 7.81932 25.0817C7.89841 25.1854 8.03023 25.2632 8.18841 25.2372C8.32023 25.2372 8.45205 25.1854 8.53114 25.1076C8.63659 24.978 8.68932 24.8484 8.71568 24.6928L8.74205 24.5372C8.76841 24.4335 8.79477 24.3558 8.8475 24.2521C8.87386 24.2002 8.95295 24.1743 9.00568 24.1743C9.08477 24.1743 9.1375 24.2002 9.19023 24.2521C9.24295 24.3298 9.26932 24.4076 9.24295 24.5113C9.24295 24.615 9.21659 24.7187 9.16386 24.8224C9.11114 24.9002 9.00568 24.9261 8.90023 24.9261V25.2372C9.08477 25.2372 9.24295 25.1854 9.34841 25.0558C9.55932 24.7446 9.55932 24.3298 9.37477 24.0187C9.26932 23.8891 9.1375 23.8372 8.97932 23.8372C8.87386 23.8372 8.74205 23.8891 8.66295 23.9928ZM9.50659 19.8187V20.1558C9.45386 20.1817 9.37477 20.2076 9.29568 20.2076H9.11114C9.03205 20.2076 8.95295 20.2335 8.90023 20.2854C8.8475 20.3372 8.82114 20.415 8.8475 20.4928V20.9076H9.53295V21.2446H7.76659V20.4669C7.76659 20.4409 7.76659 20.3891 7.76659 20.3632V20.3891C7.76659 20.2854 7.79295 20.1558 7.87205 20.0521L7.84568 20.078C7.84568 20.0521 7.87205 20.0261 7.89841 20.0261C7.9775 19.9224 8.10932 19.8706 8.2675 19.8706C8.45205 19.8706 8.63659 19.9743 8.68932 20.1558C8.71568 20.078 8.76841 20.0261 8.82114 19.9743C8.90023 19.9224 8.97932 19.9224 9.05841 19.9224L9.32205 19.8965C9.37477 19.8706 9.4275 19.8706 9.50659 19.8187ZM8.29386 20.2076C8.21477 20.2076 8.16205 20.2335 8.10932 20.2854C8.05659 20.3372 8.03023 20.415 8.05659 20.4928V20.9076H8.58386V20.4669C8.58386 20.3891 8.5575 20.3113 8.50477 20.2595C8.42568 20.2076 8.37295 20.1817 8.29386 20.2076ZM7.76659 19.1446H9.50659V18.8076H7.76659V19.1446ZM8.05659 16.7595H7.76659V18.0298H9.50659V16.7595H9.21659V17.6928H8.76841V16.8372H8.47841V17.6928H8.05659V16.7595ZM8.05659 21.9446H7.76659V23.215H9.50659V21.9446H9.21659V22.878H8.76841V22.0224H8.47841V22.878H8.05659V21.9446ZM10.2448 25.2632H12.5648L14.3048 22.9039L13.1448 21.3484L10.2448 25.2632ZM20.3684 14.7372H18.0484L16.6248 16.6817L17.7848 18.2372L20.3684 14.7372ZM12.8811 14.7372H10.5611L18.3911 25.2632H20.7111L12.8811 14.7372Z" fill="white"></path></svg> 