<?xml version="1.0" encoding="UTF-8"?> <svg xmlns="http://www.w3.org/2000/svg" width="40" height="40" viewBox="0 0 40 40" fill="none"><rect width="40" height="40" rx="8" fill="white"></rect><g clip-path="url(#clip0_39_532)"><g style="mix-blend-mode:multiply" opacity="0.2"><path d="M15.4079 27.6719C15.1107 27.6751 14.8228 27.7756 14.5882 27.9581C14.3536 28.1406 14.1854 28.395 14.1093 28.6823C14.0332 28.9695 14.0533 29.2738 14.1667 29.5485C14.2801 29.8233 14.4805 30.0532 14.7371 30.2031L19.5296 32.92C19.9243 33.1444 20.3707 33.2622 20.8247 33.2617C21.069 33.2616 21.312 33.226 21.5461 33.1563L28.756 31.1017C29.2938 30.9472 29.7668 30.6222 30.1039 30.1755C30.4409 29.7289 30.6238 29.1849 30.6249 28.6253V27.6719H15.4079Z" fill="white"></path></g><g style="mix-blend-mode:multiply" opacity="0.12"><path d="M15.4079 27.6719C15.1107 27.6751 14.8228 27.7756 14.5882 27.9581C14.3536 28.1406 14.1854 28.395 14.1093 28.6823C14.0332 28.9695 14.0533 29.2738 14.1667 29.5485C14.2801 29.8233 14.4805 30.0532 14.7371 30.2031L19.5296 32.92C19.9243 33.1444 20.3707 33.2622 20.8247 33.2617C21.069 33.2616 21.312 33.226 21.5461 33.1563L28.756 31.1017C29.2938 30.9472 29.7668 30.6222 30.1039 30.1755C30.4409 29.7289 30.6238 29.1849 30.6249 28.6253V27.6719H15.4079Z" fill="white"></path></g><path d="M21.5166 7.84375L23.453 12.2734V27.6719L21.5461 33.1562L28.756 31.1017C29.2938 30.9472 29.7668 30.6222 30.1039 30.1755C30.4409 29.7289 30.6238 29.1849 30.6249 28.6253V12.3747C30.6251 11.8137 30.4424 11.268 30.1043 10.8203C29.7663 10.3726 29.2914 10.0474 28.7518 9.89406L21.5166 7.84375Z" fill="url(#paint0_linear_39_532)"></path><path d="M12.3747 27.5075L14.4841 26.3685C14.7734 26.2095 15.0145 25.9756 15.1823 25.6913C15.35 25.407 15.4382 25.0828 15.4375 24.7527V16.4629C15.4379 16.0852 15.5542 15.7169 15.7708 15.4075C15.9873 15.0982 16.2936 14.8628 16.6483 14.7332L23.4531 12.2736V10.4047C23.4523 9.82548 23.2629 9.26224 22.9136 8.80021C22.5642 8.33819 22.0738 8.00251 21.5167 7.84395C21.2795 7.77582 21.0337 7.74172 20.7869 7.7427C20.3226 7.74376 19.8664 7.86435 19.4622 8.09285L11.6744 12.5352C11.2797 12.7601 10.9516 13.0854 10.7234 13.4781C10.4952 13.8708 10.375 14.3169 10.375 14.7711V26.3136C10.3744 26.5486 10.4349 26.7796 10.5507 26.9841C10.6664 27.1885 10.8333 27.3594 11.035 27.4798C11.2367 27.6002 11.4663 27.6661 11.7012 27.671C11.9361 27.6758 12.1682 27.6195 12.3747 27.5075Z" fill="url(#paint1_linear_39_532)"></path><path d="M23.453 27.6719H15.4079C15.1107 27.6751 14.8228 27.7756 14.5882 27.9581C14.3536 28.1406 14.1854 28.395 14.1093 28.6823C14.0332 28.9695 14.0533 29.2738 14.1667 29.5485C14.2801 29.8233 14.4805 30.0532 14.7371 30.2031L19.5296 32.92C19.9243 33.1444 20.3707 33.2622 20.8247 33.2617C21.069 33.2616 21.312 33.226 21.5461 33.1563C22.0965 32.9999 22.5806 32.668 22.9248 32.211C23.2691 31.754 23.4546 31.1971 23.453 30.625V27.6719Z" fill="url(#paint2_linear_39_532)"></path><path d="M12.3747 27.5075L14.4841 26.3685C14.7734 26.2095 15.0145 25.9756 15.1823 25.6913C15.35 25.407 15.4382 25.0828 15.4375 24.7527V16.4629C15.4379 16.0852 15.5542 15.7169 15.7708 15.4075C15.9873 15.0982 16.2936 14.8628 16.6483 14.7332L23.4531 12.2736V10.4047C23.4523 9.82548 23.2629 9.26224 22.9136 8.80021C22.5642 8.33819 22.0738 8.00251 21.5167 7.84395C21.2795 7.77582 21.0337 7.74172 20.7869 7.7427C20.3226 7.74376 19.8664 7.86435 19.4622 8.09285L11.6744 12.5352C11.2797 12.7601 10.9516 13.0854 10.7234 13.4781C10.4952 13.8708 10.375 14.3169 10.375 14.7711V26.3136C10.3744 26.5486 10.4349 26.7796 10.5507 26.9841C10.6664 27.1885 10.8333 27.3594 11.035 27.4798C11.2367 27.6002 11.4663 27.6661 11.7012 27.671C11.9361 27.6758 12.1682 27.6195 12.3747 27.5075Z" fill="url(#paint3_linear_39_532)"></path><path d="M23.453 27.6719H15.4079C15.1107 27.6751 14.8228 27.7756 14.5882 27.9581C14.3536 28.1406 14.1854 28.395 14.1093 28.6823C14.0332 28.9695 14.0533 29.2738 14.1667 29.5485C14.2801 29.8233 14.4805 30.0532 14.7371 30.2031L19.5296 32.92C19.9243 33.1444 20.3707 33.2622 20.8247 33.2617C21.069 33.2616 21.312 33.226 21.5461 33.1563C22.0965 32.9999 22.5806 32.668 22.9248 32.211C23.2691 31.754 23.4546 31.1971 23.453 30.625V27.6719Z" fill="url(#paint4_linear_39_532)"></path></g><defs><linearGradient id="paint0_linear_39_532" x1="26.0686" y1="6.40094" x2="26.0686" y2="31.3844" gradientUnits="userSpaceOnUse"><stop stop-color="#FFB900"></stop><stop offset="0.17" stop-color="#EF8400"></stop><stop offset="0.31" stop-color="#E25C01"></stop><stop offset="0.43" stop-color="#DB4401"></stop><stop offset="0.5" stop-color="#D83B01"></stop></linearGradient><linearGradient id="paint1_linear_39_532" x1="21.5631" y1="7.28285" x2="8.33313" y2="26.1744" gradientUnits="userSpaceOnUse"><stop stop-color="#800600"></stop><stop offset="0.6" stop-color="#C72127"></stop><stop offset="0.73" stop-color="#C13959"></stop><stop offset="0.85" stop-color="#BC4B81"></stop><stop offset="0.94" stop-color="#B95799"></stop><stop offset="1" stop-color="#B85BA2"></stop></linearGradient><linearGradient id="paint2_linear_39_532" x1="14.8046" y1="30.4689" x2="32.0761" y2="30.4689" gradientUnits="userSpaceOnUse"><stop stop-color="#F32B44"></stop><stop offset="0.6" stop-color="#A4070A"></stop></linearGradient><linearGradient id="paint3_linear_39_532" x1="21.8331" y1="6.89895" x2="19.0319" y2="10.8983" gradientUnits="userSpaceOnUse"><stop stop-opacity="0.4"></stop><stop offset="1" stop-opacity="0"></stop></linearGradient><linearGradient id="paint4_linear_39_532" x1="26.5411" y1="30.857" x2="18.8082" y2="30.182" gradientUnits="userSpaceOnUse"><stop stop-opacity="0.4"></stop><stop offset="1" stop-opacity="0"></stop></linearGradient><clipPath id="clip0_39_532"><rect width="27" height="27" fill="white" transform="translate(7 7)"></rect></clipPath></defs></svg> 