<?xml version="1.0" encoding="UTF-8"?> <svg xmlns="http://www.w3.org/2000/svg" width="40" height="40" viewBox="0 0 40 40" fill="none"><rect width="40" height="40" rx="8" fill="white" fill-opacity="0.05"></rect><g clip-path="url(#clip0_39_295)"><path d="M29.7606 12.2312H11.0127C9.67969 12.2312 9.67969 13.0052 9.67969 13.0052V26.8942C9.67969 30.7211 13.7217 30.9792 13.7217 30.9792H26.1916C30.8356 30.9792 30.6636 27.1521 30.6636 27.1521V13.2202C30.6636 12.0162 29.7606 12.2312 29.7606 12.2312Z" fill="url(#paint0_linear_39_295)"></path><path d="M19.6942 16.8315H15.582V20.9437H19.6942V16.8315Z" fill="#F25022"></path><path d="M24.7196 16.8315H20.6074V20.9437H24.7196V16.8315Z" fill="#7FBA00"></path><path d="M24.7196 21.8569H20.6074V25.9691H24.7196V21.8569Z" fill="#FFB900"></path><path d="M19.6942 21.8569H15.582V25.9691H19.6942V21.8569Z" fill="#00A4EF"></path><path fill-rule="evenodd" clip-rule="evenodd" d="M13.7539 13.1768C13.7539 13.6814 14.1633 14.0908 14.6679 14.0908C15.1725 14.0908 15.5815 13.6814 15.5815 13.1768H13.7539ZM24.7189 13.1768C24.7189 13.6814 25.1279 14.0908 25.6325 14.0908C26.1372 14.0908 26.5465 13.6814 26.5465 13.1768H24.7189ZM15.5815 13.1768L15.5816 10.8926H13.7539V13.1768H15.5815ZM15.5816 10.8926H24.7189V9.06494H15.5816V10.8926ZM24.7189 10.8926V13.1768H26.5465V10.8926H24.7189ZM24.7189 10.8926H26.5465C26.5465 9.88328 25.7282 9.06494 24.7189 9.06494V10.8926ZM15.5816 10.8926V9.06494C14.5722 9.06494 13.7539 9.88328 13.7539 10.8926H15.5816Z" fill="url(#paint1_linear_39_295)"></path><path d="M15.582 9.06494H24.7193V10.8922H15.582V9.06494Z" fill="url(#paint2_linear_39_295)"></path></g><defs><linearGradient id="paint0_linear_39_295" x1="19.5697" y1="13.3062" x2="19.9136" y2="34.4192" gradientUnits="userSpaceOnUse"><stop stop-color="#0669BC"></stop><stop offset="0.5" stop-color="#15528E"></stop><stop offset="1" stop-color="#243A5F"></stop></linearGradient><linearGradient id="paint1_linear_39_295" x1="18.9734" y1="11.1338" x2="18.9734" y2="13.9718" gradientUnits="userSpaceOnUse"><stop stop-color="#30DAFF"></stop><stop offset="0.5" stop-color="#18B7EA"></stop><stop offset="1" stop-color="#0094D4"></stop></linearGradient><linearGradient id="paint2_linear_39_295" x1="20.1507" y1="8.81763" x2="20.1507" y2="11.0536" gradientUnits="userSpaceOnUse"><stop stop-color="#22BCFF"></stop><stop offset="0.5" stop-color="#11A2F8"></stop><stop offset="1" stop-color="#0088F0"></stop></linearGradient><clipPath id="clip0_39_295"><rect width="26" height="26" fill="white" transform="translate(7 7)"></rect></clipPath></defs></svg> 