<?xml version="1.0" encoding="UTF-8"?> <svg xmlns="http://www.w3.org/2000/svg" width="40" height="40" viewBox="0 0 40 40" fill="none"><rect width="40" height="40" rx="8" fill="#F15A23"></rect><g clip-path="url(#clip0_39_290)"><path d="M19.5534 7.03632C19.7011 6.9539 19.9193 7.01505 19.9699 7.18637C20.0247 7.32771 19.93 7.45711 19.8524 7.56667C19.3037 8.34852 18.9395 9.25673 18.7673 10.1965C18.6631 10.2411 18.6328 10.351 18.6653 10.4547C18.7167 10.4736 18.7685 10.4904 18.8209 10.5064C19.8861 10.4124 20.9666 10.4318 22.0153 10.657C23.9235 11.043 25.7067 12.0132 27.0772 13.4001C28.4437 14.7728 29.4029 16.5516 29.7911 18.4547C30.2213 20.5152 29.9809 22.7086 29.1202 24.6277C27.2953 28.5467 24.2189 31.8615 20.4548 33.9626C20.3334 34.0193 20.1585 34.0215 20.0753 33.9002C19.9774 33.7731 20.0177 33.5922 20.1146 33.4764C20.6224 32.7646 20.9769 31.9461 21.1695 31.093C21.2066 30.916 21.2572 30.7368 21.2419 30.5547C21.1798 30.4733 21.0772 30.498 20.99 30.5009C19.1628 30.6845 17.2829 30.3565 15.6316 29.5457C13.8633 28.6895 12.3626 27.2898 11.3706 25.5884C10.4512 24.0233 9.96799 22.2004 10.0016 20.3821C10.0079 18.7133 10.4611 17.0581 11.2589 15.5972C13.1163 12.0138 16.0325 8.99004 19.5534 7.03672V7.03632ZM19.4508 16.6124C18.364 16.759 17.3615 17.4003 16.7529 18.3144C16.3408 18.9421 16.0913 19.6875 16.0963 20.4425C16.0655 21.4537 16.4667 22.4669 17.1622 23.1955C17.7697 23.8528 18.6137 24.2813 19.4988 24.3959C20.3997 24.5156 21.3408 24.3035 22.104 23.806C22.8796 23.3113 23.4705 22.53 23.7351 21.6453C24.2314 20.1093 23.6365 18.3099 22.3416 17.361C21.5282 16.7391 20.462 16.4631 19.451 16.6126L19.4508 16.6124Z" fill="white"></path></g><defs><clipPath id="clip0_39_290"><rect width="20" height="27" fill="white" transform="translate(10 7)"></rect></clipPath></defs></svg> 