<?xml version="1.0" encoding="UTF-8"?> <svg xmlns="http://www.w3.org/2000/svg" width="40" height="40" viewBox="0 0 40 40" fill="none"><rect width="40" height="40" rx="8" fill="#306FF6"></rect><g clip-path="url(#clip0_39_285)"><path d="M32.5256 19.9869C32.2429 6.66918 14.5328 1.70155 7.71105 14.1856C8.01655 14.4099 8.42605 14.7016 8.73155 14.9136C8.2278 15.9666 7.87273 17.0879 7.67286 18.2392C7.54205 18.9802 7.47461 19.7285 7.47461 20.4817C7.47461 27.3879 13.0898 32.9999 20.0042 32.9999C26.9234 32.9999 32.5256 27.3969 32.5256 20.4817V19.9869ZM10.5629 22.2172C10.398 23.5716 10.5036 23.9909 10.5036 24.155L10.1989 24.2614C10.0852 24.0404 9.80161 23.2539 9.66998 22.1952C9.3393 18.1677 12.0904 14.5407 16.2837 13.8549C20.122 13.2927 23.8002 15.679 24.6549 19.0135L24.3502 19.1199C24.2568 19.0265 24.104 18.7559 23.5158 18.1677C18.878 13.5291 11.5948 15.653 10.5621 22.2212L10.5629 22.2172ZM22.4839 24.4727C21.8445 25.3949 20.7947 25.9449 19.6784 25.9409C17.7869 25.9449 16.2553 24.4134 16.2594 22.5219C16.2634 20.7368 17.6471 19.2516 19.4289 19.1199C20.5331 19.0736 21.565 19.6692 22.0484 20.6344C22.5774 21.6915 22.3824 22.9744 21.5577 23.8251C21.8737 24.0494 22.1792 24.2614 22.4839 24.4727ZM29.6104 24.6043C27.8034 28.7001 24.0797 30.8508 20.1106 30.7915C12.4885 30.4145 10.272 21.6208 15.3664 18.4512L15.5907 18.6714C15.5062 18.7909 15.2007 19.0281 14.7319 19.9544C14.1818 21.0797 14.0039 22.2099 14.0754 22.9127C14.4727 29.056 23.0852 30.3137 26.0427 24.2281C29.8135 15.9049 19.8051 7.43618 10.9269 13.9069L10.7279 13.7079C13.0646 10.0443 17.6341 8.41037 21.9891 9.50237C28.6492 11.1818 32.2299 18.1214 29.6104 24.6043Z" fill="white"></path></g><defs><clipPath id="clip0_39_285"><rect width="26" height="26" fill="white" transform="translate(7 7)"></rect></clipPath></defs></svg> 