<?xml version="1.0" encoding="UTF-8"?> <svg xmlns="http://www.w3.org/2000/svg" width="24" height="23" viewBox="0 0 24 23" fill="none"><path fill-rule="evenodd" clip-rule="evenodd" d="M18.8841 10.3381C17.5728 10.3089 16.5277 11.3925 16.5101 12.6106C16.4925 13.8764 17.5405 14.8919 18.715 14.9565C20.1252 15.0344 21.2046 13.8985 21.2055 12.6796C21.2064 11.3881 20.2047 10.3611 18.8841 10.3381ZM14.2405 11.4783V0.32908C14.2405 0.0106312 14.2451 0.00620832 14.5778 0.00620832L18.095 0.00886206C20.9551 0.0548603 23.3467 2.06109 23.8697 4.75729C23.9522 5.18803 23.9939 5.62502 23.9945 6.06293L24 17.0388C23.9991 19.5546 22.4484 21.7642 20.0688 22.632C19.4072 22.8735 18.7178 22.9885 18.0136 22.9938L14.6277 22.9956C14.2405 22.9956 14.2405 22.9956 14.2405 22.6046V11.4766V11.4783ZM9.33441 21.122V1.86206H9.08028C8.0998 1.86206 7.11933 1.85498 6.13885 1.8656C5.81094 1.86744 5.48382 1.89644 5.16114 1.95229C3.32217 2.28047 1.88426 3.98417 1.88333 5.82852L1.8898 17.1972C1.89534 18.3285 2.36849 19.2874 3.20943 20.0597C4.0171 20.8009 4.99018 21.1273 6.08155 21.1318H9.13296C9.19672 21.1318 9.26141 21.1238 9.33441 21.1194V21.122ZM11.2381 11.5022V22.6789C11.2381 22.9699 11.2067 23 10.9119 23L6.10281 22.9982C4.46252 22.9982 3.02738 22.4675 1.83528 21.3529C0.949983 20.5241 0.37796 19.5068 0.130299 18.325C0.0582188 17.9818 0.000924108 17.6279 0 17.2785L0.0147857 5.73298C0.0609911 3.32162 1.31501 1.57722 3.52085 0.527226C4.33406 0.140665 5.20735 -0.0017529 6.10835 1.62576e-05H10.8952C11.2251 1.62576e-05 11.2372 0.0106312 11.2372 0.345887V11.5013L11.2381 11.5022ZM3.73062 7.17485C3.69458 6.06028 4.67599 5.02709 5.96881 5.03151C7.22929 5.03593 8.24212 5.94175 8.2338 7.2235C8.22548 8.4973 7.10546 9.37038 5.94294 9.34296C4.69077 9.31377 3.72231 8.3823 3.73062 7.17485Z" fill="white"></path></svg> 