<?xml version="1.0" encoding="UTF-8"?> <svg xmlns="http://www.w3.org/2000/svg" width="24" height="20" viewBox="0 0 24 20" fill="none"><path fill-rule="evenodd" clip-rule="evenodd" d="M3.95587 16.3295C4.53829 16.5476 5.59114 16.4856 6.30797 16.1915L8.25045 15.3853V17.719L7.86404 17.7917C5.92075 18.1543 3.84866 18.0031 1.81018 17.2349C-0.0915044 16.6236 -0.409118 15.3497 0.458119 14.6145C1.26055 13.9355 2.62221 13.4258 2.62221 13.4258L8.25045 11.1392V13.7447L4.19988 15.4034C3.48305 15.6967 3.37504 16.113 3.95587 16.3295ZM23.7847 15.8636C23.3095 16.3906 22.1486 16.7665 22.1486 16.7665L13.5003 19.5V17.4852L19.8638 15.4885C20.5862 15.2613 20.6974 14.9392 20.111 14.7707C19.5245 14.6021 18.4637 14.65 17.7413 14.8772L13.5003 16.1923V14.1015L13.7435 14.0288C13.7435 14.0288 14.9707 13.6463 16.6916 13.477C18.4149 13.3126 20.5254 13.5001 22.1814 14.0536C24.0487 14.5724 24.2583 15.3382 23.7847 15.8636ZM14.4259 11.088V5.15004C14.4259 4.45448 14.3019 3.81426 13.6683 3.6317C13.1827 3.46813 12.8835 3.9357 12.8835 4.63126V19.5L9.00008 18.227V0.5C10.6522 0.816391 13.0563 1.564 14.3499 2.01257C17.6365 3.17983 18.7509 4.63126 18.7509 7.90009C18.7509 11.0871 16.8468 12.2957 14.4267 11.088H14.4259Z" fill="white"></path></svg> 