<?xml version="1.0" encoding="UTF-8"?> <svg xmlns="http://www.w3.org/2000/svg" width="40" height="40" viewBox="0 0 40 40" fill="none"><g clip-path="url(#clip0_5_1561)"><rect width="40" height="40" rx="8" fill="#14487B"></rect><g clip-path="url(#clip1_5_1561)"><path fill-rule="evenodd" clip-rule="evenodd" d="M25.1622 6C20.8575 6 17.345 9.55114 17.3119 13.929L12.4228 21.0763C11.0589 20.9503 9.88251 21.2383 8.84269 21.885L-2.83018 16.1764C-5.46228 20.1647 -2.83018 24.1517 -2.83018 24.1517L6.10724 28.2891C6.67882 30.9763 9.03534 33 11.8231 33C14.8545 33 17.3667 30.6253 17.6423 27.6013L25.1686 21.9917C29.4861 21.9917 32.9986 18.4213 32.9986 13.9933L32.9973 13.992C32.9986 9.58457 29.4861 6 25.1622 6ZM11.8231 31.4096C10.1683 31.4096 8.74444 30.4607 8.02103 29.076L10.1351 29.9336C11.892 30.6716 13.8887 29.7921 14.5904 27.9999C14.93 27.1436 14.9202 26.1869 14.5632 25.3378C14.2062 24.4888 13.5309 23.8162 12.6843 23.4664L10.893 22.7284C11.1981 22.6582 11.5101 22.6229 11.8231 22.623C14.2128 22.623 16.1266 24.576 16.1266 27.015C16.1266 29.454 14.2128 31.4083 11.8231 31.4083V31.4096ZM25.1699 19.3509C22.2635 19.3509 19.9019 16.9607 19.9019 13.9946C19.9019 11.0413 22.2571 8.63829 25.1699 8.63829C28.0559 8.63829 30.4175 11.0426 30.4175 13.9946C30.4175 16.9684 28.0546 19.3586 25.1699 19.3509ZM25.1839 9.69514C22.8631 9.69514 20.9838 11.6147 20.9838 13.9817C20.9838 16.3487 22.8568 18.2683 25.1839 18.2683C27.4907 18.2683 29.3841 16.3564 29.3841 13.9817C29.3841 11.607 27.4907 9.69514 25.1839 9.69514Z" fill="white"></path></g></g><defs><clipPath id="clip0_5_1561"><rect width="40" height="40" rx="8" fill="white"></rect></clipPath><clipPath id="clip1_5_1561"><rect width="37" height="27" fill="white" transform="translate(-4 6)"></rect></clipPath></defs></svg> 