<?xml version="1.0" encoding="UTF-8"?> <svg xmlns="http://www.w3.org/2000/svg" width="24" height="25" viewBox="0 0 24 25" fill="none"><path fill-rule="evenodd" clip-rule="evenodd" d="M2.39844 12.81C2.39844 7.50803 6.6965 3.20996 11.9984 3.20996C17.3004 3.20996 21.5984 7.50803 21.5984 12.81V17.31C21.5984 19.1325 20.121 20.61 18.2984 20.61C16.4759 20.61 14.9984 19.1325 14.9984 17.31V14.31C14.9984 12.4874 16.4759 11.01 18.2984 11.01C18.7809 11.01 19.2392 11.1135 19.6523 11.2996C18.9489 7.71459 15.7895 5.00996 11.9984 5.00996C8.20735 5.00996 5.04797 7.71459 4.34456 11.2996C4.75766 11.1135 5.21596 11.01 5.69844 11.01C7.52098 11.01 8.99844 12.4874 8.99844 14.31V17.31C8.99844 19.1325 7.52098 20.61 5.69844 20.61C3.8759 20.61 2.39844 19.1325 2.39844 17.31V12.81ZM4.19844 14.31V17.31C4.19844 18.1384 4.87001 18.81 5.69844 18.81C6.52686 18.81 7.19844 18.1384 7.19844 17.31V14.31C7.19844 13.4815 6.52686 12.81 5.69844 12.81C4.87001 12.81 4.19844 13.4815 4.19844 14.31ZM19.7984 14.31C19.7984 13.4815 19.1269 12.81 18.2984 12.81C17.47 12.81 16.7984 13.4815 16.7984 14.31V17.31C16.7984 18.1384 17.47 18.81 18.2984 18.81C19.1269 18.81 19.7984 18.1384 19.7984 17.31V14.31Z" fill="#00FF93"></path><path fill-rule="evenodd" clip-rule="evenodd" d="M4.56049 19.753L4.53125 19.6449L6.26879 19.1748L6.29804 19.283C6.6286 20.5049 6.74174 20.8594 6.93319 21.108C7.1256 21.3579 7.38029 21.5529 7.67175 21.6734C7.96176 21.7932 8.33351 21.8099 9.59938 21.8099H9.94212L10.0281 21.6381C10.0343 21.6256 10.041 21.6119 10.0482 21.5973C10.1181 21.4551 10.2334 21.2206 10.4196 21.0382C10.5785 20.8827 10.7699 20.7643 10.9801 20.6918C11.2265 20.6068 11.4878 20.6086 11.6463 20.6096C11.6625 20.6098 11.6777 20.6099 11.6917 20.6099H12.9C13.7284 20.6099 14.4 21.2814 14.4 22.1099C14.4 22.9383 13.7284 23.6099 12.9 23.6099H9.59938C9.54182 23.6099 9.48506 23.6099 9.42906 23.61C8.41266 23.6108 7.64831 23.6114 6.98412 23.3368C6.4012 23.0959 5.89182 22.706 5.507 22.2062C5.06852 21.6368 4.86951 20.8988 4.60488 19.9174C4.5903 19.8634 4.57552 19.8086 4.56049 19.753Z" fill="#00FF93"></path></svg> 