<?xml version="1.0" encoding="UTF-8"?> <svg xmlns="http://www.w3.org/2000/svg" width="24" height="24" viewBox="0 0 24 24" fill="none"><rect width="24" height="24" rx="12" fill="#EB565B"></rect><path d="M14.85 19.575H14.7C12.9 19.575 11.1 19.575 9.3 19.575C9.075 19.575 8.925 19.5 8.85 19.35C6.975 16.95 5.025 14.625 3.15 12.225C3.075 12.075 3 12 3 11.85C3 9.52505 3 7.27505 3 4.95005C3 4.87505 3 4.80005 3.075 4.80005H3.15C7.05 9.67505 10.95 14.55 14.775 19.425C14.775 19.425 14.775 19.5 14.85 19.5V19.575Z" fill="black"></path><path d="M20.8502 12.225C20.3252 12.9 19.7252 13.575 19.2002 14.325C19.0502 14.475 18.9002 14.55 18.7502 14.55C16.9502 14.55 15.1502 14.55 13.4252 14.55H13.3502C13.2752 14.55 13.2002 14.475 13.2752 14.4C13.2752 14.4 13.2752 14.325 13.3502 14.325C15.1502 12.075 16.8752 9.90005 18.6752 7.65005C19.4252 6.75005 20.1752 5.77505 20.8502 4.87505C20.8502 4.80005 20.9252 4.80005 21.0002 4.80005H21.0752C21.0752 4.87505 21.0752 4.87505 21.0752 4.95005C21.0752 7.20005 21.0752 9.52505 21.0752 11.775C21.0002 12 20.9252 12.15 20.8502 12.225Z" fill="black"></path></svg> 