<svg width="277" height="280" viewBox="0 0 277 280" fill="none" xmlns="http://www.w3.org/2000/svg">
<path fill-rule="evenodd" clip-rule="evenodd" d="M185.75 94.2802C232.038 94.2802 269.561 56.7571 269.561 10.4696C269.561 -35.8177 232.038 -73.341 185.75 -73.341C139.463 -73.341 101.939 -35.8177 101.939 10.4696C101.939 56.7571 139.463 94.2802 185.75 94.2802ZM151.566 52.3749H172.309V16.5354L203.885 52.3749H229.122L192.13 8.81434L223.36 -28.2928H198.468L172.309 2.47616V-28.2928H151.566V52.3749Z" fill="url(#paint0_linear_800_4168)"/>
<path fill-rule="evenodd" clip-rule="evenodd" d="M56.5622 147.546C81.9551 142.585 98.5185 117.979 93.5579 92.5863C88.5972 67.1935 63.9911 50.63 38.5982 55.5906C13.2054 60.5513 -3.35808 85.1575 1.60255 110.55C6.56321 135.943 31.1695 152.507 56.5622 147.546ZM33.3181 128.221L44.6976 125.998L40.8566 106.336L62.0196 122.614L75.8647 119.909L50.9029 99.9765L64.0585 76.2729L50.4031 78.9406L39.3499 98.6237L36.0524 81.7441L24.6729 83.9672L33.3181 128.221Z" fill="url(#paint1_linear_800_4168)"/>
<path fill-rule="evenodd" clip-rule="evenodd" d="M220.851 238.655C246.25 243.585 270.836 226.992 275.766 201.593C280.696 176.194 264.102 151.608 238.704 146.678C213.305 141.749 188.719 158.342 183.789 183.741C178.859 209.14 195.453 233.726 220.851 238.655ZM206.557 212.02L217.939 214.23L221.756 194.564L235.265 217.593L249.113 220.28L233.455 192.438L254.543 175.403L240.885 172.752L223.253 186.849L226.53 169.966L215.148 167.756L206.557 212.02Z" fill="url(#paint2_linear_800_4168)"/>
<path fill-rule="evenodd" clip-rule="evenodd" d="M133.074 293.066C148.107 295.984 162.659 286.163 165.577 271.129C168.495 256.096 158.674 241.543 143.64 238.626C128.607 235.708 114.054 245.529 111.137 260.563C108.219 275.596 118.04 290.148 133.074 293.066ZM124.613 277.301L131.35 278.609L133.609 266.969L141.605 280.599L149.802 282.19L140.533 265.711L153.016 255.627L144.931 254.058L134.495 262.402L136.435 252.409L129.698 251.102L124.613 277.301Z" fill="url(#paint3_linear_800_4168)"/>
<path fill-rule="evenodd" clip-rule="evenodd" d="M118.726 206.46C133.759 209.378 148.311 199.557 151.229 184.523C154.147 169.49 144.326 154.937 129.292 152.02C114.259 149.102 99.7065 158.923 96.7886 173.957C93.8707 188.99 103.692 203.542 118.726 206.46ZM110.265 190.695L117.002 192.003L119.261 180.363L127.257 193.993L135.454 195.584L126.186 179.105L138.668 169.021L130.583 167.452L120.147 175.796L122.087 165.803L115.35 164.496L110.265 190.695Z" fill="url(#paint4_linear_800_4168)"/>
<defs>
<linearGradient id="paint0_linear_800_4168" x1="277" y1="-39.0002" x2="97" y2="333.5" gradientUnits="userSpaceOnUse">
<stop stop-color="#00FF93" stop-opacity="0.75"/>
<stop offset="0.329769" stop-color="#00F698" stop-opacity="0.43"/>
<stop offset="1" stop-color="#0038FF" stop-opacity="0.27"/>
</linearGradient>
<linearGradient id="paint1_linear_800_4168" x1="277" y1="-39.0002" x2="97" y2="333.5" gradientUnits="userSpaceOnUse">
<stop stop-color="#00FF93" stop-opacity="0.75"/>
<stop offset="0.329769" stop-color="#00F698" stop-opacity="0.43"/>
<stop offset="1" stop-color="#0038FF" stop-opacity="0.27"/>
</linearGradient>
<linearGradient id="paint2_linear_800_4168" x1="277" y1="-39.0002" x2="97" y2="333.5" gradientUnits="userSpaceOnUse">
<stop stop-color="#00FF93" stop-opacity="0.75"/>
<stop offset="0.329769" stop-color="#00F698" stop-opacity="0.43"/>
<stop offset="1" stop-color="#0038FF" stop-opacity="0.27"/>
</linearGradient>
<linearGradient id="paint3_linear_800_4168" x1="277" y1="-39.0002" x2="97" y2="333.5" gradientUnits="userSpaceOnUse">
<stop stop-color="#00FF93" stop-opacity="0.75"/>
<stop offset="0.329769" stop-color="#00F698" stop-opacity="0.43"/>
<stop offset="1" stop-color="#0038FF" stop-opacity="0.27"/>
</linearGradient>
<linearGradient id="paint4_linear_800_4168" x1="277" y1="-39.0002" x2="97" y2="333.5" gradientUnits="userSpaceOnUse">
<stop stop-color="#00FF93" stop-opacity="0.75"/>
<stop offset="0.329769" stop-color="#00F698" stop-opacity="0.43"/>
<stop offset="1" stop-color="#0038FF" stop-opacity="0.27"/>
</linearGradient>
</defs>
</svg>
