<svg width="20" height="20" viewBox="0 0 20 20" fill="none" xmlns="http://www.w3.org/2000/svg">
<path d="M13.332 6.66683V10.0002M9.99868 6.66683V10.0002M3.33203 4.16683V13.3335C3.33203 13.5545 3.41983 13.7665 3.57611 13.9228C3.73239 14.079 3.94435 14.1668 4.16536 14.1668H5.83203V17.5002L9.16536 14.1668H13.8187C14.0404 14.1668 14.252 14.0793 14.4079 13.9227L16.4204 11.911C16.5762 11.7543 16.6645 11.5427 16.6645 11.321V4.16683C16.6645 3.94582 16.5767 3.73385 16.4205 3.57757C16.2642 3.42129 16.0522 3.3335 15.8312 3.3335H4.16453C3.94352 3.3335 3.73156 3.42129 3.57528 3.57757C3.419 3.73385 3.33203 3.94582 3.33203 4.16683Z" stroke="white" stroke-width="1.66667" stroke-linecap="round" stroke-linejoin="round"/>
</svg>
