<?xml version="1.0" encoding="UTF-8"?> <svg xmlns="http://www.w3.org/2000/svg" width="40" height="40" viewBox="0 0 40 40" fill="none"><rect width="40" height="40" rx="8" fill="white"></rect><path d="M31.9469 19.2322L29.5039 16.26L27.0637 19.2322H26.0584L28.9952 15.6411L26.313 12.377H27.3184L29.5039 15.0391L31.6895 12.377H32.6941L30.014 15.6405L32.9515 19.2322H31.9469ZM12.9108 19.231L9.97055 15.6405L12.6527 12.377H11.6474L9.46119 15.0397L7.27697 12.377H6.27433L8.95518 15.6405L6.01562 19.231H7.02229L9.46253 16.26L11.9048 19.231H12.9108Z" fill="#0F7C10"></path><path d="M18.5013 15.8999C18.3498 15.7842 18.1811 15.6879 18 15.6139C18.2779 15.4815 18.5103 15.2838 18.6723 15.0419C18.8343 14.8001 18.9198 14.5232 18.9195 14.2411C18.9195 13.8025 18.7392 12.3762 16.4337 12.3762H13.3286V15.3315H12.2944C12.1604 15.4883 11.8554 15.8651 11.7395 16.0195H13.3286V19.2308L16.4344 19.2314C18.1166 19.2314 19.1615 18.466 19.1615 17.2301C19.1615 16.6906 18.9342 16.2321 18.5013 15.8999ZM14.1871 13.0917H16.4344C17.0422 13.0917 18.061 13.2275 18.061 14.181C18.061 14.902 17.4678 15.3315 16.4344 15.3315H14.1871V13.0917ZM16.4337 18.5164H14.1865V16.0213H16.4337C17.2855 16.0213 18.3049 16.2321 18.3049 17.2151C18.3049 18.347 17.1327 18.5164 16.4337 18.5164ZM23.2008 12.2188C21.0528 12.2188 19.5515 13.6913 19.5515 15.8002C19.5515 17.912 21.0528 19.3834 23.2008 19.3834C25.3468 19.3834 26.8441 17.912 26.8441 15.8002C26.8441 13.6913 25.3468 12.2188 23.2008 12.2188ZM23.2008 18.6582C21.5642 18.6582 20.4174 17.4824 20.4174 15.8002C20.4174 14.1179 21.5642 12.9427 23.2008 12.9427C24.8348 12.9427 25.9748 14.1179 25.9748 15.8002C25.9748 17.4824 24.8348 18.6582 23.2008 18.6582ZM22.7348 21.5876V27.213L18.1124 21.5834L17.3543 21.5822V28.4314H18.2055V22.9305L22.7335 28.4357L23.5867 28.4369V21.5876H22.7348ZM12.9356 21.4284C10.7876 21.4284 9.28564 22.9016 9.28564 25.0098C9.28564 27.1217 10.7876 28.5955 12.9356 28.5955C15.0816 28.5955 16.5789 27.1217 16.5789 25.0098C16.5789 22.9022 15.0816 21.4284 12.9356 21.4284ZM12.9356 27.8691C11.299 27.8691 10.1522 26.6933 10.1522 25.0098C10.1522 23.3282 11.299 22.1524 12.9356 22.1524C14.5696 22.1524 15.7096 23.3282 15.7096 25.0098C15.7096 26.6933 14.5696 27.8691 12.9356 27.8691ZM25.3982 27.7664V25.2321H29.6052V24.5616H25.3982V22.2527H29.8907V21.5828H24.5424V28.4369H29.9436V27.7664H25.3982Z" fill="#0F7C10"></path></svg> 