<?xml version="1.0" encoding="UTF-8"?> <svg xmlns="http://www.w3.org/2000/svg" width="24" height="24" viewBox="0 0 24 24" fill="none"><rect width="24" height="24" rx="12" fill="white"></rect><g clip-path="url(#clip0_39_588)"><path d="M13.0879 18H14.9257C16.6132 18 18 16.6132 18 14.9257V9.07425C18 7.38675 16.6132 6 14.9257 6H13.0507C13.0136 6 12.9746 6.03712 12.9746 6.07425V17.9257C12.9746 17.9629 13.0117 18 13.0879 18ZM15.375 11.4004C16.0507 11.4004 16.5743 11.9629 16.5743 12.5996C16.5743 13.2754 16.0118 13.7989 15.375 13.7989C14.6993 13.7989 14.1757 13.2754 14.1757 12.5996C14.1368 11.9258 14.6993 11.4004 15.375 11.4004ZM11.6993 6H9.07425C7.38675 6 6 7.38675 6 9.07425V14.9257C6 16.6132 7.38675 18 9.07425 18H11.6993C11.7364 18 11.7754 17.9629 11.7754 17.9257V6.07425C11.7754 6.03712 11.7382 6 11.6993 6ZM10.8379 17.0254H9.07425C7.91212 17.0254 6.97462 16.0879 6.97462 14.9257V9.07425C6.97462 7.91212 7.91212 6.97462 9.07425 6.97462H10.8007L10.8379 17.0254ZM7.875 9.59963C7.875 10.2364 8.36325 10.7246 9 10.7246C9.63675 10.7246 10.125 10.2364 10.125 9.59963C10.125 8.96287 9.63675 8.47463 9 8.47463C8.36325 8.47463 7.875 8.96287 7.875 9.59963Z" fill="#C82B24"></path></g><defs><clipPath id="clip0_39_588"><rect width="12" height="12" fill="white" transform="translate(6 6)"></rect></clipPath></defs></svg> 