<?xml version="1.0" encoding="UTF-8"?> <svg xmlns="http://www.w3.org/2000/svg" width="40" height="40" viewBox="0 0 40 40" fill="none"><rect width="40" height="40" rx="8" fill="#101010"></rect><g clip-path="url(#clip0_39_431)"><path d="M35.7339 16.3857H25.9369V19.1569C25.9369 19.1569 25.907 20.2269 27.1753 20.2269H33.1638C33.3987 20.2248 33.6314 20.2742 33.8469 20.3719C34.1813 20.5274 34.5572 20.8441 34.5572 21.483C34.5572 22.0563 34.2909 22.3819 34.0274 22.5641C33.8092 22.7112 33.5545 22.7884 33.2947 22.7863H25.9369V23.5641H34.1413C34.1413 23.5641 36.0049 23.4852 36.0049 21.4869C36.0049 20.4707 35.4362 19.9674 34.9245 19.7207C34.5939 19.5623 34.2341 19.4809 33.8703 19.4824H27.9351C27.8362 19.4838 27.7385 19.4595 27.6508 19.4119C27.5241 19.3402 27.3846 19.198 27.3846 18.918V17.153H35.7339V16.3857ZM13.6059 22.7835V23.5613H17.7644C18.2614 23.5668 18.7436 23.3847 19.1221 23.0485C19.3173 22.8756 19.473 22.6594 19.5779 22.4156C19.6827 22.1719 19.734 21.9067 19.728 21.6396V18.3335C19.7259 18.1527 19.7631 17.9738 19.8369 17.8102C19.9107 17.6466 20.0191 17.5026 20.154 17.3891C20.3454 17.2327 20.5823 17.1494 20.8254 17.153H24.4508V16.3857H20.1332C20.1332 16.3857 18.2696 16.4169 18.2696 18.4735V21.5607C18.2729 21.8136 18.2076 22.0622 18.0812 22.278C17.9897 22.4375 17.859 22.5686 17.7027 22.6578C17.5464 22.747 17.3701 22.791 17.192 22.7852L13.6059 22.7835ZM4.00488 16.3857V17.153H11.4165C11.6227 17.1511 11.8267 17.1968 12.0139 17.2869C12.3078 17.4307 12.638 17.7269 12.638 18.3274C12.638 18.9107 12.3078 19.2024 12.0139 19.3469C11.8236 19.438 11.6164 19.4843 11.4069 19.4824H5.90997C5.58459 19.4792 5.26299 19.5553 4.97074 19.7046C4.51337 19.9441 4.00488 20.508 4.00488 21.438V23.5491H5.43131V21.4474C5.43036 21.3107 5.45402 21.175 5.50106 21.0474C5.61873 20.7324 5.91636 20.2269 6.61227 20.2269H12.155C12.3414 20.2279 12.5271 20.2019 12.7066 20.1496C13.2157 19.9985 14.0644 19.5619 14.0644 18.3274C14.0644 16.4091 12.2344 16.3857 12.2344 16.3857H4.00488Z" fill="white"></path></g><defs><clipPath id="clip0_39_431"><rect width="32" height="12" fill="white" transform="translate(4 14)"></rect></clipPath></defs></svg> 