<?xml version="1.0" encoding="UTF-8"?> <svg xmlns="http://www.w3.org/2000/svg" width="40" height="40" viewBox="0 0 40 40" fill="none"><rect width="40" height="40" rx="8" fill="white" fill-opacity="0.05"></rect><path fill-rule="evenodd" clip-rule="evenodd" d="M9.61719 18.2504C9.61719 15.6368 9.61719 14.33 10.1258 13.3317C10.5732 12.4536 11.2871 11.7397 12.1652 11.2923C13.1635 10.7837 14.4703 10.7837 17.0839 10.7837H22.9172C25.5308 10.7837 26.8376 10.7837 27.8358 11.2923C28.7139 11.7397 29.4278 12.4536 29.8752 13.3317C30.3839 14.33 30.3839 15.6368 30.3839 18.2504C30.3839 20.8639 30.3839 22.1707 29.8752 23.169C29.4278 24.0471 28.7139 24.761 27.8358 25.2084C26.8605 25.7053 25.5907 25.7168 23.0953 25.717L23.737 28.2837H25.9505C26.5304 28.2837 27.0005 28.7538 27.0005 29.3337C27.0005 29.9136 26.5304 30.3837 25.9505 30.3837H14.0505C13.4706 30.3837 13.0005 29.9136 13.0005 29.3337C13.0005 28.7538 13.4706 28.2837 14.0505 28.2837H16.264L16.9057 25.717C14.4104 25.7168 13.1405 25.7053 12.1652 25.2084C11.2871 24.761 10.5732 24.0471 10.1258 23.169C9.61719 22.1707 9.61719 20.8639 9.61719 18.2504ZM22.9172 12.8837H17.0839C15.7424 12.8837 14.8626 12.8853 14.1898 12.9403C13.5415 12.9933 13.2724 13.0851 13.1186 13.1634C12.6357 13.4095 12.243 13.8022 11.9969 14.2851C11.9186 14.4389 11.8268 14.708 11.7738 15.3563C11.7188 16.0291 11.7172 16.9089 11.7172 18.2504C11.7172 19.5918 11.7188 20.4716 11.7738 21.1444C11.8268 21.7927 11.9186 22.0619 11.9969 22.2156C12.243 22.6986 12.6357 23.0912 13.1186 23.3373C13.2724 23.4156 13.5415 23.5075 14.1898 23.5604C14.8626 23.6154 15.7424 23.617 17.0839 23.617H22.9172C24.2586 23.617 25.1384 23.6154 25.8112 23.5604C26.4595 23.5075 26.7287 23.4156 26.8824 23.3373C27.3654 23.0912 27.758 22.6986 28.0041 22.2156C28.0824 22.0619 28.1743 21.7927 28.2272 21.1444C28.2822 20.4716 28.2839 19.5918 28.2839 18.2504C28.2839 16.9089 28.2822 16.0291 28.2272 15.3563C28.1743 14.708 28.0824 14.4389 28.0041 14.2851C27.758 13.8022 27.3654 13.4095 26.8824 13.1634C26.7287 13.0851 26.4595 12.9933 25.8112 12.9403C25.1384 12.8853 24.2586 12.8837 22.9172 12.8837ZM19.0703 25.717L18.4287 28.2837H21.5724L20.9307 25.717H19.0703Z" fill="white"></path><rect x="20.5" y="6.5" width="13" height="13" rx="6.5" fill="white"></rect><path d="M27.5 9.33333C27.5901 9.63367 27.6531 9.934 28.1524 10.2221C28.7114 10.3738 28.9848 10.2233 29.2392 10.0537C29.5043 9.87695 29.5831 9.92804 29.689 10.0322L29.9463 10.2894C30.0641 10.4073 30.1113 10.4544 29.9463 10.7608C29.7976 11.037 29.6297 11.294 29.7792 11.8511C30.0674 12.3532 30.367 12.4401 30.6667 12.5C30.9792 12.5625 30.9987 12.6543 30.9999 12.8029L31 13.1667C31 13.3333 31 13.4 30.6667 13.5C30.3663 13.5901 30.066 13.6531 29.7779 14.1524C29.6262 14.7114 29.7767 14.9848 29.9463 15.2392C30.1231 15.5043 30.072 15.5831 29.9678 15.689L29.7106 15.9463C29.5927 16.0641 29.5456 16.1113 29.2392 15.9463C28.963 15.7976 28.706 15.6297 28.1489 15.7792C27.6468 16.0674 27.5599 16.367 27.5 16.6667C27.4375 16.9792 27.3457 16.9987 27.1971 16.9999C27.0759 17 26.9546 17 26.8333 17C26.6667 17 26.6 17 26.5 16.6667C26.4099 16.3663 26.3469 16.066 25.8476 15.7779C25.2886 15.6262 25.0152 15.7767 24.7608 15.9463C24.4957 16.1231 24.4169 16.072 24.311 15.9678L24.0537 15.7106C23.9359 15.5927 23.8887 15.5456 24.0537 15.2392C24.2024 14.963 24.3703 14.706 24.2208 14.1489C23.9326 13.6468 23.633 13.5599 23.3333 13.5C23.0208 13.4375 23.0013 13.3457 23.0001 13.1971L23 12.8333C23 12.6667 23 12.6 23.3333 12.5C23.6337 12.4099 23.934 12.3469 24.2221 11.8476C24.3738 11.2886 24.2233 11.0152 24.0537 10.7608C23.8769 10.4957 23.928 10.4169 24.0322 10.311L24.2894 10.0537C24.4073 9.93587 24.4544 9.88873 24.7608 10.0537C25.037 10.2024 25.294 10.3703 25.8511 10.2208C26.3532 9.93264 26.4401 9.63299 26.5 9.33333C26.5625 9.02083 26.6543 9.0013 26.8029 9.00008L27.1667 9C27.3333 9 27.4 9 27.5 9.33333ZM27 11.1C25.9507 11.1 25.1 11.9507 25.1 13C25.1 14.0493 25.9507 14.9 27 14.9C28.0493 14.9 28.9 14.0493 28.9 13C28.9 11.9507 28.0493 11.1 27 11.1Z" fill="#3F4044"></path><rect x="20.5" y="6.5" width="13" height="13" rx="6.5" stroke="#3F4044"></rect></svg> 