<?xml version="1.0" encoding="UTF-8"?> <svg xmlns="http://www.w3.org/2000/svg" width="40" height="40" viewBox="0 0 40 40" fill="none"><rect width="40" height="40" rx="8" fill="#14368C"></rect><g clip-path="url(#clip0_39_421)"><path d="M20.1803 22.1415V18.7096C20.1803 18.0095 20.4849 17.5081 21.1346 17.5081H25.142C25.1664 17.5081 25.1901 17.482 25.1901 17.4561V16.7733C25.1899 16.7673 25.1886 16.7614 25.1864 16.7559H20.2865C19.2244 16.9007 18.7056 17.6947 18.7056 18.7096V22.1414C18.7056 22.8416 18.3924 23.3429 17.7515 23.3429H13.5194C13.4954 23.3429 13.4713 23.3603 13.4713 23.3948V24.0778C13.4713 24.1061 13.4875 24.1279 13.5065 24.135H18.3115C19.5637 24.0997 20.1803 23.2421 20.1803 22.1415ZM3.71625 24.135H5.12329C5.13391 24.1305 5.14299 24.1227 5.1493 24.1125C5.1556 24.1023 5.15882 24.0902 5.15851 24.078V21.8908C5.15851 21.1907 5.52716 20.7065 6.06423 20.7065H11.8598C13.1664 20.7065 13.7998 19.842 13.7998 18.7096C13.7998 17.6947 13.2815 16.9007 12.2189 16.7559H3.69021C3.68776 16.7616 3.68359 16.766 3.68359 16.7733V17.4561C3.68359 17.4907 3.6996 17.5081 3.73162 17.5081H11.3708C12.0201 17.5081 12.3248 18.0095 12.3248 18.7096C12.3248 19.4098 12.0201 19.9112 11.3708 19.9112H5.32683C4.38898 19.9112 3.68359 20.7672 3.68359 21.8908V24.0781C3.68349 24.1061 3.6948 24.1279 3.71625 24.135Z" fill="white"></path><path d="M25.1665 23.3432H32.8619C32.8855 23.3432 32.9015 23.3603 32.9015 23.3777V24.078C32.9015 24.1126 32.926 24.1298 32.9495 24.1298H34.3366C34.3612 24.1298 34.3845 24.1126 34.3845 24.078V23.395C34.3845 23.369 34.4091 23.3432 34.4327 23.3432H35.8112C35.8433 23.3432 35.8594 23.3172 35.8594 23.2914V22.5997C35.8594 22.5736 35.8433 22.5479 35.8112 22.5479H34.4327C34.4091 22.5479 34.3845 22.5218 34.3845 22.4961V17.5081C34.3845 17.1011 34.2437 16.8418 34.0065 16.7559H33.6052C33.4801 16.7903 33.3441 16.852 33.1983 16.946L24.91 22.4355C24.5893 22.6515 24.4769 22.8934 24.5572 23.075C24.6213 23.2307 24.8052 23.3432 25.1665 23.3432ZM26.3687 22.4267L32.7892 18.1651C32.8298 18.1305 32.91 18.1392 32.91 18.2342V22.4961C32.91 22.5221 32.8855 22.5479 32.8619 22.5479H26.4084C26.3528 22.5479 26.328 22.5308 26.3207 22.5133C26.3119 22.4786 26.3279 22.4527 26.3687 22.4267Z" fill="white"></path></g><defs><clipPath id="clip0_39_421"><rect width="32" height="12" fill="white" transform="translate(4 14)"></rect></clipPath></defs></svg> 