<?xml version="1.0" encoding="UTF-8"?> <svg xmlns="http://www.w3.org/2000/svg" width="24" height="24" viewBox="0 0 24 24" fill="none"><rect width="24" height="24" rx="12" fill="#3C63C3"></rect><path d="M17.6536 11.1095C17.6536 11.1095 18.8745 11.172 18.8745 10.4375C18.8745 9.5 17.2351 8.6345 17.2351 8.6345L17.6536 7.7845C17.9169 7.21396 18.1351 6.62365 18.3061 6.019C18.3561 5.6755 18.2781 5.569 18.2781 5.569C18.1656 6.3005 16.9761 8.4095 16.8827 8.4815C16.0012 8.117 15.0718 7.882 14.1228 7.7845C14.1228 7.7845 12.5709 4.5 11.1005 4.5C9.63008 4.5 9.64858 7.3125 9.64858 7.3125C9.64858 7.3125 9.2366 6.5125 8.71213 6.5125C7.95668 6.5125 7.70969 7.6595 7.70969 8.9C6.74495 8.90278 5.7843 9.02556 4.84986 9.2655C4.73737 9.297 4.38489 9.553 4.53788 9.5215C5.58782 9.2915 6.66625 9.2155 7.73819 9.2965C7.81319 10.4745 8.50315 12.009 8.50315 12.009C8.50315 12.009 7.04223 14.1525 7.04223 15.681C7.04223 16.084 7.21722 16.8185 8.29116 16.8185C9.02093 16.7631 9.72864 16.5429 10.361 16.1745C10.198 16.443 10.1006 16.746 10.0771 17.059C10.0771 17.228 10.177 17.703 10.8605 17.703C11.738 17.703 12.7184 17.028 12.7184 17.028C12.7184 17.028 13.6548 18.5685 14.4388 19.275C14.5558 19.384 14.6988 19.4615 14.8543 19.5C14.8543 19.5 14.0673 18.7405 13.0309 16.7875C13.9958 16.194 14.9978 14.7875 14.9978 14.7875H16.0312C17.4641 14.7875 19.5 14.475 19.5 13.347C19.5 12.219 17.6546 11.1095 17.6546 11.1095H17.6536ZM17.8131 10.403C17.8161 10.4565 17.8081 10.51 17.7896 10.5605C17.7711 10.611 17.7421 10.6565 17.7046 10.695C17.6671 10.7335 17.6226 10.764 17.5731 10.784C17.5236 10.804 17.4701 10.814 17.4166 10.8125L17.1046 10.8345C17.1046 10.8345 16.5332 10.522 16.1897 10.394L16.8487 9.3345C16.9581 9.391 17.8131 9.925 17.8131 10.403ZM11.8185 6.1595C12.4899 6.1595 13.4514 7.75 13.4514 7.75C12.5024 7.6915 11.556 7.897 10.7165 8.344C10.757 7.197 11.135 6.1595 11.8185 6.1595ZM9.14911 7.45C9.36159 7.45 9.57058 7.7095 9.65808 7.9315C9.65808 8.0785 9.73307 8.9285 9.73307 8.9285L8.48415 8.8815C8.48415 7.766 8.92112 7.4505 9.13661 7.4505L9.14911 7.45ZM9.02111 15.203C8.34665 15.203 8.20616 14.825 8.20616 14.4845C8.20616 13.719 8.83063 12.644 8.83063 12.644C8.83063 12.644 9.51759 14.0875 10.704 14.7005C10.202 15.0245 9.61858 15.1985 9.02111 15.203ZM11.2065 16.7155C10.732 16.7155 10.6725 16.403 10.6725 16.3375C10.6904 16.1657 10.7494 16.0007 10.8445 15.8565L11.6935 15.2595L12.2899 16.375C11.9604 16.564 11.5942 16.6801 11.216 16.7155H11.2065ZM12.6834 16.1155C12.4965 15.7821 12.3297 15.4378 12.1839 15.0845C12.1839 15.0845 13.3674 15.1595 14.0043 14.503C13.455 14.7647 12.8474 14.8799 12.2404 14.8375C13.4259 13.8385 14.4988 12.713 15.4407 11.4815C15.2872 11.3445 15.1198 11.224 14.9413 11.122C14.5043 11.6875 12.7059 13.5815 11.07 14.522C8.98112 13.3845 8.54414 10.0285 8.49715 9.3315L9.63958 9.441C9.40466 9.84299 9.25379 10.2885 9.1961 10.7505C9.1961 11.31 9.2646 11.341 9.2646 11.341C9.2751 10.717 9.48059 10.1115 9.85157 9.61C10.3105 12.054 10.788 13.307 11.16 14.0505C11.3505 13.9725 11.7035 13.816 11.7035 13.816C11.7035 13.816 10.6515 10.7755 10.7105 8.716C11.3205 8.3875 12.0004 8.2105 12.6929 8.2005C14.0073 8.218 15.3017 8.5265 16.4832 9.1035L15.8212 10.041C15.8212 10.041 15.2343 8.9725 14.4008 8.791C14.9148 9.136 15.3247 9.6145 15.5872 10.1755C14.1268 9.636 12.6119 9.2565 11.0695 9.0445C11.0315 9.244 11.015 9.4475 11.0195 9.651C11.0195 9.651 13.8293 10.173 15.8902 11.348C15.8747 13.9135 13.0804 15.8885 12.6929 16.1165L12.6834 16.1155ZM15.3622 14.1875C15.9102 13.403 16.2102 12.4725 16.2242 11.5155C16.2242 11.5155 17.6261 12.4 17.6261 13.25C17.6261 14.2095 15.3622 14.1875 15.3622 14.1875Z" fill="white"></path></svg> 