<?xml version="1.0" encoding="UTF-8"?> <svg xmlns="http://www.w3.org/2000/svg" width="24" height="24" viewBox="0 0 24 24" fill="none"><rect width="24" height="24" rx="12" fill="white"></rect><g clip-path="url(#clip0_39_334)"><path d="M10.2766 9.35534C10.2535 9.35456 10.2303 9.35777 10.2079 9.36517C9.86285 9.45751 9.52081 9.56596 9.18697 9.7004C8.93752 9.79969 8.69413 9.922 8.47377 10.0866C8.38419 10.1537 8.29731 10.2253 8.21577 10.3041C8.1965 10.323 8.17527 10.3428 8.16992 10.3726C8.19597 10.5517 8.34924 10.6482 8.48163 10.7231C8.69914 10.8345 8.94428 10.8985 9.18409 10.8683C9.11272 10.8007 9.01351 10.79 8.93804 10.7303C8.90735 10.7046 8.90665 10.6586 8.89844 10.621C8.82475 10.6373 8.75479 10.6687 8.68182 10.6876C8.74908 10.6415 8.82225 10.6075 8.89219 10.567C9.26618 10.3885 9.67049 10.3116 10.0714 10.2505C10.3508 10.2165 10.6362 10.2058 10.9065 10.1118C10.8845 10.0443 10.8735 9.94524 10.7951 9.93472C10.6267 9.83681 10.5461 9.63504 10.449 9.46466C10.4134 9.39585 10.3459 9.35765 10.2766 9.35534Z" fill="black"></path><path d="M13.736 9.3555C13.6825 9.35459 13.6291 9.3721 13.5908 9.41551C13.5368 9.47827 13.5054 9.55928 13.464 9.63177C13.4047 9.74655 13.3282 9.85301 13.2268 9.9245C13.2008 9.94356 13.1612 9.93998 13.1457 9.97474C13.1225 10.0172 13.1076 10.0653 13.0996 10.114C13.3703 10.2037 13.654 10.2132 13.9325 10.252C14.3743 10.3139 14.8211 10.4041 15.2236 10.6255C15.2577 10.6462 15.2925 10.6668 15.3266 10.688C15.2533 10.667 15.1812 10.6404 15.1086 10.617C15.0966 10.6575 15.0953 10.7085 15.0597 10.7339C14.9853 10.7897 14.888 10.8001 14.8206 10.8678C14.9351 10.8849 15.0513 10.873 15.1644 10.8493C15.3846 10.8017 15.609 10.7105 15.7698 10.5298L15.7718 10.5306C15.8071 10.4776 15.8264 10.415 15.8335 10.3497C15.5758 10.0842 15.2643 9.88934 14.9376 9.75013C14.5699 9.59226 14.1902 9.47132 13.8076 9.36746C13.7847 9.36013 13.7604 9.35592 13.736 9.3555Z" fill="black"></path><path d="M12.0021 8.00003C11.9866 7.99938 11.9711 8.01019 11.9683 8.03392C11.9048 8.26686 11.8482 8.50775 11.7283 8.71468C11.6851 8.79093 11.6228 8.85149 11.5525 8.89538C11.3827 9.00341 11.1932 9.06319 11.0076 9.12792C10.9784 9.13646 10.9546 9.15772 10.9336 9.18075C10.955 9.20061 10.9773 9.22087 11.0049 9.23C11.2044 9.3009 11.4111 9.36287 11.5897 9.48936C11.6955 9.56205 11.7574 9.68715 11.8091 9.80868H11.8107C11.8769 9.97828 11.9221 10.1562 11.9706 10.3326C11.9843 10.3834 12.0391 10.3538 12.04 10.3119C12.0807 10.1427 12.1321 9.97728 12.1886 9.81424L12.1847 9.80254L12.197 9.79856C12.2306 9.73461 12.257 9.66571 12.2991 9.60753C12.3507 9.52829 12.427 9.47666 12.503 9.43118C12.5307 9.41649 12.5587 9.40179 12.5867 9.38729C12.7197 9.32593 12.8572 9.27866 12.9946 9.2316C13.0217 9.21829 13.0669 9.20916 13.059 9.16528C13.0341 9.14204 13.003 9.12972 12.9727 9.1192C12.7921 9.05783 12.6089 8.99707 12.4447 8.89122C12.3742 8.84674 12.3135 8.78397 12.2711 8.70732C12.1547 8.50198 12.0978 8.26507 12.0361 8.03491C12.0331 8.01276 12.0175 8.00067 12.0021 8.00003Z" fill="black"></path><path d="M3.91207 9.53129C3.78501 9.53044 3.65792 9.54355 3.53321 9.57114C3.10017 9.66805 2.70975 9.95463 2.4405 10.3417C2.29169 10.5565 2.17642 10.8 2.10273 11.0586C2.02618 11.327 1.99157 11.6104 2.00174 11.8918C2.00762 12.0414 2.02387 12.1905 2.05438 12.3363C2.07668 12.4457 2.10612 12.5531 2.14181 12.6582L2.14377 12.6592C2.1948 12.8153 2.2651 12.963 2.34575 13.1024C2.35771 13.1155 2.36361 13.1463 2.38323 13.1457L2.37432 13.1481C2.48459 13.3264 2.61912 13.4857 2.77043 13.6219L2.7756 13.6221C2.91674 13.7526 3.07929 13.8537 3.25004 13.9279C3.49164 14.0348 3.75411 14.0751 4.01301 14.0604C4.43357 14.0429 4.865 13.951 5.22846 13.7051C5.3398 13.6412 5.44009 13.5502 5.52716 13.4495C5.52769 13.3498 5.52768 13.2502 5.52857 13.1507C5.52839 12.9942 5.53091 12.8377 5.52734 12.6814C5.53269 12.5791 5.51822 12.4727 5.55533 12.3756L5.55212 12.3803C5.58977 12.3019 5.64885 12.236 5.72094 12.1972C5.78642 12.1571 5.86921 12.1565 5.92755 12.1023C5.92702 12.0914 5.92576 12.0696 5.92523 12.0586C5.87669 12.0511 5.8278 12.0541 5.77909 12.0539C5.18457 12.0543 4.59005 12.0537 3.99552 12.0543C3.9602 12.0441 3.91592 12.0809 3.94322 12.1216C3.98533 12.1669 4.04869 12.1732 4.1024 12.1927C4.26299 12.2298 4.41912 12.313 4.52064 12.4604C4.55258 12.5283 4.58468 12.5996 4.58468 12.6782C4.58682 12.9112 4.58291 13.1439 4.58612 13.3769C4.57845 13.4964 4.57791 13.6205 4.5317 13.7313C4.44748 13.834 4.30991 13.7903 4.2 13.7967C4.0105 13.7653 3.83207 13.6704 3.68933 13.5286C3.55658 13.3977 3.44952 13.2369 3.3662 13.0631C3.29197 12.9054 3.2354 12.7382 3.19401 12.5664C3.17224 12.4663 3.15475 12.3653 3.13941 12.2638C3.12049 12.0827 3.11087 11.9004 3.11818 11.7183C3.13014 11.4895 3.16368 11.2623 3.22114 11.0423L3.22362 11.0421C3.28767 10.802 3.38831 10.574 3.52231 10.3726C3.60903 10.2547 3.70504 10.1433 3.82049 10.0599C4.01051 9.9163 4.25336 9.85591 4.47836 9.91707C4.7212 9.97923 4.92265 10.1641 5.07235 10.3794C5.16959 10.5246 5.24755 10.6846 5.30839 10.8522C5.33516 10.9305 5.36051 11.0093 5.38014 11.0903C5.3937 11.1398 5.39956 11.1962 5.43578 11.2331C5.49556 11.1088 5.48307 10.9618 5.49681 10.8258C5.50359 10.6892 5.50665 10.5524 5.50682 10.4157C5.50236 10.2781 5.50913 10.1359 5.46916 10.0037C5.24719 10.01 5.03648 9.92027 4.84467 9.8033C4.56124 9.62688 4.23679 9.53346 3.91207 9.53129Z" fill="black"></path><path d="M5.77675 10.9557C5.76653 10.9555 5.75631 10.9556 5.74609 10.956C5.82496 11.0432 5.93165 11.1027 5.98535 11.2159C6.06136 11.3772 6.06173 11.5652 6.05888 11.7428C6.06084 11.8933 6.05905 12.0438 6.05958 12.1944C6.05994 12.3562 6.05958 12.5178 6.05958 12.6795C6.13488 12.5973 6.2157 12.521 6.30135 12.4523C6.42 12.3576 6.54651 12.2758 6.67819 12.2057C6.67802 12.0577 6.67803 11.9098 6.67803 11.762C6.67982 11.6774 6.67445 11.5927 6.68052 11.5083C6.68944 11.4288 6.7601 11.3702 6.83112 11.3768C6.97939 11.3774 7.12767 11.3752 7.27594 11.3782C7.3996 11.3823 7.51557 11.4441 7.60836 11.5325C7.72148 11.6504 7.79946 11.8041 7.84853 11.9666C7.85335 11.9602 7.86298 11.9471 7.86779 11.9408C7.88546 11.8027 7.86404 11.6617 7.84495 11.5249C7.81997 11.3944 7.78679 11.266 7.74646 11.1405C7.31556 11.1409 6.88322 11.1458 6.45427 11.0924C6.25711 11.0626 6.06228 11.0155 5.86797 10.9679C5.83799 10.9598 5.80741 10.9563 5.77675 10.9557Z" fill="black"></path><path d="M7.44414 12.1138C7.40008 12.1139 7.35542 12.1198 7.31303 12.1237C6.88355 12.1859 6.47049 12.3861 6.13433 12.6897C6.02138 12.7995 5.91915 12.9228 5.83101 13.0581C5.75803 13.1747 5.69148 13.2968 5.64062 13.4273C5.76463 13.3357 5.89418 13.2539 6.02675 13.1784C6.03745 13.1731 6.04833 13.1677 6.05939 13.1625C6.05921 13.1866 6.05921 13.2106 6.05921 13.2348C6.06777 13.3568 6.04459 13.4765 6.00801 13.5903L6.013 13.6036L5.99821 13.6085C5.92184 13.7783 5.78462 13.8965 5.66044 14.0204C5.75536 14.0236 5.84637 13.9899 5.93861 13.9702C6.1852 13.9114 6.43785 13.8917 6.68961 13.8917C7.07769 13.8921 7.46596 13.891 7.85404 13.8923C7.90311 13.7521 7.93987 13.607 7.96824 13.46C7.98608 13.3458 7.99642 13.2301 7.99571 13.1143C7.99321 13.0847 7.99679 13.0416 7.9652 13.0307C7.91703 13.1862 7.8394 13.3305 7.73501 13.4471C7.62635 13.5639 7.48077 13.6395 7.32892 13.6431C7.15674 13.6443 6.98456 13.6441 6.81256 13.6433C6.76991 13.6457 6.73599 13.6147 6.70477 13.5871C6.69085 13.5506 6.67535 13.5132 6.67767 13.4727C6.67695 13.3695 6.67801 13.2664 6.6773 13.1633C6.67837 13.0756 6.67749 12.9878 6.67767 12.9002C6.70514 12.8923 6.7326 12.8845 6.76026 12.877C6.82021 12.8621 6.88054 12.8482 6.94102 12.8353C7.2522 12.7739 7.56836 12.7465 7.88418 12.7447C7.90238 12.7433 7.92023 12.7399 7.93807 12.7348C7.9188 12.6756 7.88508 12.6228 7.83708 12.5884C7.7798 12.5509 7.71236 12.5358 7.65705 12.4949C7.57015 12.4123 7.58498 12.2693 7.60514 12.1579C7.55646 12.1228 7.50078 12.1136 7.44414 12.1138Z" fill="black"></path><path d="M10.2323 11.1401C10.0497 11.1401 9.86716 11.141 9.68462 11.1426C9.65715 11.2026 9.73368 11.2175 9.76651 11.2397C9.89766 11.3033 9.93137 11.48 9.91941 11.624C9.91995 11.7146 9.91853 11.8051 9.91996 11.8957C9.91978 12.1401 9.9187 12.3846 9.9196 12.629C9.92013 12.7017 9.91977 12.7744 9.91941 12.8471C9.89211 12.8086 9.86482 12.7698 9.83752 12.7313C9.73136 12.5774 9.62233 12.4257 9.51599 12.272C9.44979 12.1785 9.38395 12.0845 9.31828 11.9908C9.25744 11.904 9.19644 11.8176 9.13595 11.7308C8.9982 11.5338 8.85956 11.3378 8.72181 11.1408C8.50109 11.1418 8.28019 11.1379 8.05947 11.1426L8.05876 11.1879C8.11301 11.2362 8.19099 11.2497 8.23114 11.3188C8.31786 11.4387 8.28894 11.5994 8.29465 11.741C8.29447 11.8673 8.29304 11.9934 8.29447 12.1195C8.29358 12.2327 8.29466 12.3461 8.29395 12.4593C8.29466 12.5697 8.29375 12.6803 8.29428 12.7907C8.29357 12.9519 8.29518 13.1132 8.2934 13.2745C8.29143 13.3934 8.30588 13.5153 8.27447 13.6311C8.2536 13.676 8.23184 13.7227 8.1958 13.755C8.15833 13.791 8.10872 13.8043 8.06786 13.8345C8.04752 13.846 8.05661 13.8736 8.05733 13.893C8.42257 13.8911 8.78801 13.895 9.15325 13.8911C9.16539 13.8267 9.09953 13.8144 9.06206 13.7906C8.9914 13.7574 8.94912 13.6808 8.92414 13.6037C8.90183 13.4693 8.91771 13.332 8.91183 13.1964C8.91325 13.0594 8.91201 12.9224 8.91201 12.7853C8.91308 12.6974 8.91147 12.6094 8.91271 12.5214C8.91218 12.4471 8.91237 12.3729 8.91219 12.2988C8.91291 12.1981 8.91184 12.0974 8.91256 11.9967L8.91041 11.9562C8.91273 11.9551 8.91719 11.9525 8.91933 11.9511C8.95537 12.0103 8.99659 12.0653 9.03566 12.1219C9.08098 12.1856 9.12542 12.2502 9.17092 12.3137C9.25407 12.4325 9.33667 12.5516 9.42071 12.6696C9.49084 12.7706 9.56131 12.8715 9.63232 12.9718C9.73991 13.1219 9.84269 13.277 9.95242 13.4252C10.0418 13.5584 10.136 13.6875 10.2265 13.8198C10.2779 13.8926 10.3344 13.961 10.3955 14.0241C10.4902 14.1133 10.6071 14.1806 10.7324 14.1899C10.7152 14.123 10.672 14.0702 10.6451 14.0084L10.633 14.0027L10.639 13.9947C10.6169 13.9083 10.5844 13.8251 10.5691 13.7366C10.5568 13.6589 10.5477 13.5805 10.5429 13.5018C10.535 13.3446 10.5387 13.1869 10.5375 13.0294C10.5382 12.8548 10.5373 12.6803 10.5371 12.5055C10.5391 12.3425 10.5382 11.6796 10.5366 11.5742C10.5322 11.4475 10.573 11.3023 10.6829 11.2441C10.7213 11.2187 10.7871 11.2084 10.78 11.1428C10.5975 11.1411 10.4149 11.1402 10.2323 11.1401Z" fill="black"></path><path d="M11.9113 10.5496C11.8604 10.5499 11.8096 10.5541 11.7589 10.5632C11.5093 10.6025 11.2706 10.7493 11.1241 10.9804C11.0707 11.068 11.0302 11.1647 11.0065 11.267L11.0074 11.2692C10.9631 11.466 10.9865 11.6753 11.0466 11.8647L11.0486 11.8651C11.0903 11.994 11.1581 12.1112 11.2418 12.2115L11.2445 12.2113C11.3508 12.3284 11.4781 12.4202 11.6019 12.5117C11.8556 12.7159 12.1227 12.899 12.3708 13.1119C12.4398 13.183 12.4885 13.2767 12.5028 13.3807C12.5047 13.4709 12.4951 13.5613 12.4653 13.6455C12.4237 13.745 12.3515 13.8278 12.2614 13.8729C12.1577 13.9308 12.0387 13.9257 11.9266 13.911C11.8733 13.9012 11.8205 13.8883 11.7686 13.8727C11.6663 13.8369 11.5701 13.7833 11.4815 13.7172C11.4508 13.6906 11.4204 13.6639 11.3906 13.6367L11.3485 13.5954C11.3212 13.5643 11.2941 13.5331 11.2673 13.5013C11.2115 13.4294 11.1603 13.3534 11.1139 13.2735C11.0393 13.153 10.9929 13.0126 10.9124 12.8966C10.8817 13.0185 10.8826 13.1466 10.8809 13.2721C10.8816 13.3105 10.8816 13.349 10.885 13.3873C10.8905 13.5003 10.9039 13.6129 10.9264 13.7233C10.9576 13.8629 11.0052 14.0029 11.0957 14.1088C11.2279 14.0196 11.396 14.0317 11.5371 14.0873C11.7687 14.1699 12.0162 14.1886 12.2574 14.1616C12.3695 14.1495 12.4792 14.1185 12.5847 14.0746C12.7276 14.0079 12.855 13.8998 12.9439 13.7577C13.0238 13.6254 13.0734 13.4711 13.0907 13.3132L13.093 13.3148C13.1032 13.228 13.1064 13.1405 13.106 13.0531C13.1009 12.8672 13.059 12.6811 12.9708 12.5219C12.9162 12.4262 12.8477 12.342 12.7752 12.2629C12.5959 12.0961 12.3977 11.9571 12.2064 11.8082C12.0328 11.6747 11.8551 11.5478 11.6852 11.4084C11.5837 11.3171 11.5113 11.1759 11.535 11.0265C11.5525 10.9443 11.5889 10.8635 11.6538 10.8156C11.7668 10.7298 11.9118 10.7275 12.043 10.7427C12.2105 10.7624 12.3686 10.8567 12.4753 11.0021L12.4771 11.0019C12.5461 11.0952 12.5857 11.21 12.6491 11.3069C12.7722 11.4064 12.9023 11.5075 13.05 11.5545C13.0523 11.4715 13.022 11.3947 12.9972 11.3184C12.958 11.206 12.9178 11.0938 12.8728 10.9842C12.8172 10.8559 12.752 10.7328 12.6819 10.6138C12.5815 10.6677 12.4685 10.6442 12.3647 10.618C12.216 10.5818 12.0637 10.5486 11.9113 10.5496Z" fill="black"></path><path d="M14.2979 11.1396C13.9321 11.144 13.5663 11.1359 13.2007 11.1436C13.1973 11.2181 13.2775 11.2225 13.3192 11.2566C13.4277 11.3311 13.4528 11.486 13.4434 11.6173C13.4448 11.7263 13.4418 11.8353 13.445 11.9445L13.4477 11.957C13.4428 12.0003 13.4425 12.0442 13.4441 12.0879C13.4436 12.2557 13.4429 12.4235 13.4437 12.5915C13.4434 12.6596 13.4398 12.728 13.4498 12.7959L13.4484 12.7828C13.4502 12.7915 13.4537 12.8088 13.4555 12.8175C13.4532 12.8211 13.4486 12.8286 13.4461 12.8324C13.44 12.969 13.4446 13.1061 13.4434 13.2429C13.4436 13.3426 13.4434 13.4425 13.4427 13.5425C13.4389 13.644 13.4084 13.7395 13.3759 13.8333L13.3795 13.8464L13.3686 13.8484C13.3028 13.9798 13.2066 14.0859 13.1094 14.1883C13.4122 14.1967 13.6704 13.9894 13.9607 13.9266C14.0725 13.9064 14.1851 13.8899 14.299 13.8919C14.3189 13.8293 14.2502 13.8132 14.2135 13.7914C14.1173 13.7447 14.0675 13.6263 14.0618 13.5147C14.0613 13.416 14.0636 13.3174 14.0611 13.2189C14.0623 13.1224 14.0632 13.0256 14.0602 12.9293C14.062 12.8453 14.1234 12.7659 14.2021 12.7688C14.4529 12.7692 14.7038 12.7657 14.9545 12.7709C14.9743 12.7828 14.9947 12.7945 15.017 12.8006C15.0518 12.8449 15.0618 12.9017 15.0725 12.9575L15.0616 12.9702C15.0637 12.9786 15.068 12.9956 15.0701 13.004C15.0582 13.0495 15.0648 13.0977 15.0644 13.1446C15.0646 13.2651 15.0621 13.3859 15.065 13.5066C15.06 13.6194 15.0127 13.7405 14.916 13.7896C14.8778 13.814 14.8112 13.8253 14.8226 13.8907C15.1879 13.8923 15.5535 13.8939 15.9187 13.8901C15.9419 13.8301 15.8729 13.816 15.8392 13.7944C15.7428 13.7505 15.6916 13.6353 15.6823 13.5251C15.6823 13.4295 15.6839 13.3338 15.6809 13.2385C15.6846 13.0931 15.683 12.9474 15.6807 12.8022C15.685 12.6372 15.6827 12.4718 15.6807 12.307C15.6864 12.0834 15.6798 11.8597 15.6823 11.6361C15.6825 11.5456 15.6777 11.4497 15.7184 11.3672C15.7464 11.3007 15.7999 11.2527 15.8609 11.2265C15.8893 11.2114 15.9435 11.1889 15.9175 11.1426C15.5524 11.1393 15.187 11.1391 14.8219 11.1428C14.8139 11.2084 14.8812 11.2187 14.9194 11.2443C15.0125 11.2924 15.0555 11.4079 15.0657 11.5156C15.0624 11.7229 15.0657 11.9304 15.0637 12.1377C15.0658 12.1892 15.0378 12.2315 15.0084 12.2678C14.979 12.2813 14.9491 12.2972 14.9167 12.2954C14.684 12.2958 14.4515 12.2954 14.2188 12.2956C14.1584 12.3026 14.1052 12.2625 14.0723 12.2091C14.0524 12.0929 14.0661 11.9739 14.062 11.8568C14.0618 11.8159 14.0616 11.7751 14.0613 11.7346C14.0618 11.7017 14.0618 11.6687 14.0622 11.6359C14.0513 11.4939 14.0755 11.3186 14.2019 11.2473C14.2393 11.2201 14.3207 11.2088 14.2979 11.1396Z" fill="black"></path><path d="M16.3617 12.1143C16.331 12.114 16.3003 12.1158 16.2697 12.1204C16.2382 12.1234 16.2109 12.141 16.1845 12.1581C16.2002 12.2532 16.215 12.3605 16.1687 12.4483C16.1505 12.4866 16.1123 12.5039 16.0876 12.535C16.0036 12.544 15.9106 12.601 15.8691 12.6892C15.8564 12.706 15.8475 12.7467 15.8787 12.7432C16.1319 12.746 16.3853 12.7614 16.6367 12.798C16.6363 12.76 16.6365 12.7223 16.6367 12.6848C16.6367 12.6197 16.6365 12.5547 16.6367 12.49C16.6367 12.3772 16.6363 12.2646 16.6367 12.152C16.5461 12.1341 16.4539 12.115 16.3617 12.1143Z" fill="black"></path><path d="M17.4324 12.5098C17.432 12.6823 17.4315 12.8549 17.4317 13.0275L17.437 13.0167C17.6859 13.1276 17.9261 13.263 18.1502 13.427C18.0728 13.229 17.963 13.0479 17.8355 12.8859C17.719 12.7387 17.5812 12.6138 17.4324 12.5098Z" fill="black"></path><path d="M16.6738 11.1397C16.5514 11.1398 16.429 11.1414 16.3068 11.1467C16.3073 11.1564 16.3086 11.1757 16.3091 11.1852C16.4051 11.242 16.5262 11.2412 16.6094 11.328C16.6897 11.3959 16.7155 11.5119 16.704 11.6191C16.7056 11.9166 16.7034 12.2141 16.7043 12.5116C16.7052 12.681 16.7018 12.8504 16.7052 13.0198C16.702 13.0887 16.7041 13.1576 16.7043 13.2267C16.7034 13.3333 16.7059 13.4401 16.7015 13.5468C16.6658 13.6941 16.535 13.7774 16.4085 13.8052C16.3683 13.8216 16.2977 13.822 16.3009 13.8868C16.3451 13.8927 16.3901 13.8933 16.4349 13.8897C16.4468 13.8895 16.4709 13.8892 16.4829 13.889C16.8876 13.8961 17.2924 13.8896 17.6973 13.8923C17.7235 13.8905 17.777 13.9013 17.7656 13.8528C17.7162 13.8091 17.6487 13.8075 17.5915 13.7833C17.5074 13.7553 17.4341 13.6935 17.3888 13.6103L17.3749 13.6072L17.3791 13.5921C17.3593 13.5067 17.3652 13.4183 17.3654 13.3311C17.3652 13.1862 17.3647 13.0412 17.3652 12.8962C17.365 12.707 17.3656 12.5179 17.3647 12.3289C17.3661 12.1168 17.365 11.9047 17.3648 11.6926C17.3695 11.5977 17.3492 11.4934 17.3982 11.4086C17.4532 11.3048 17.5583 11.2525 17.6601 11.2273C17.7006 11.2106 17.7672 11.2106 17.7701 11.1477C17.6093 11.132 17.4475 11.1449 17.2864 11.1407C17.0824 11.1432 16.878 11.1394 16.6738 11.1397Z" fill="black"></path><path d="M21.9983 9.7793C21.8447 9.79796 21.6957 9.85138 21.5439 9.88335C21.1305 9.98622 20.7165 10.0869 20.3033 10.1908C20.2794 10.1906 20.2376 10.2275 20.2706 10.2505C20.3673 10.2904 20.4806 10.3006 20.5545 10.3909C20.6544 10.4934 20.6664 10.6519 20.6601 10.7937C20.6574 10.9267 20.6583 11.06 20.6603 11.193C20.6576 11.4045 20.658 11.6162 20.6603 11.8279C20.656 11.9578 20.6601 12.0878 20.6587 12.2179C20.4778 12.0495 20.2975 11.8799 20.1163 11.7119C19.9298 11.5362 19.7419 11.3622 19.5549 11.1871C19.3281 10.9742 19.0999 10.7631 18.8735 10.5498C18.6308 10.5889 18.3885 10.6304 18.1457 10.6687C18.1077 10.6822 18.0285 10.6632 18.0356 10.7309C18.0968 10.7919 18.1914 10.7752 18.2618 10.8195C18.3859 10.8797 18.4504 11.0341 18.4378 11.1799C18.4362 11.3841 18.4362 11.5884 18.4373 11.7926C18.4369 11.9655 18.4357 12.1387 18.4373 12.3116C18.4364 12.4707 18.436 12.6298 18.4369 12.7889C18.4364 12.9287 18.4363 13.0685 18.4363 13.2085C18.4417 13.3197 18.4354 13.4339 18.39 13.5353C18.34 13.6378 18.2626 13.7236 18.1671 13.7729C18.1252 13.7991 18.0747 13.8122 18.0408 13.8515C18.0242 13.8997 18.082 13.8936 18.1082 13.8948C18.2167 13.8922 18.3256 13.8988 18.434 13.8912H18.4442C18.7301 13.8988 19.0164 13.8922 19.3026 13.8944C19.4586 13.8906 19.6152 13.9019 19.7708 13.8886C19.7999 13.8515 19.7517 13.8269 19.7275 13.814C19.635 13.7691 19.5433 13.7147 19.4798 13.6247C19.4049 13.5191 19.3701 13.3836 19.3808 13.2496C19.381 13.1418 19.3804 13.0337 19.3808 12.9257C19.381 12.7346 19.3806 12.5434 19.3806 12.3522C19.3808 12.1915 19.3811 12.0309 19.3806 11.8704C19.3811 11.766 19.3804 11.6617 19.3808 11.5574C19.4586 11.6289 19.5346 11.7024 19.6128 11.7733C19.7352 11.8887 19.8576 12.0041 19.9812 12.1179C20.2067 12.3307 20.4344 12.5406 20.6594 12.7539C20.6594 12.7676 20.6592 12.795 20.6591 12.8087C20.6646 12.963 20.6789 13.1191 20.7208 13.2669C20.7434 13.3604 20.775 13.4513 20.8154 13.5375C20.861 13.6386 20.9171 13.7343 20.9845 13.8193C21.1215 13.9996 21.2987 14.1422 21.495 14.2322C21.528 14.2469 21.5814 14.2624 21.5964 14.2121C21.6108 14.0141 21.6008 13.8146 21.6015 13.616C21.6062 13.3947 21.6012 13.1733 21.6029 12.9521C21.6013 12.7122 21.6071 12.4719 21.5994 12.2324C21.6076 11.9524 21.6022 11.6716 21.6017 11.3914C21.6056 11.0723 21.6017 10.7529 21.6035 10.4338C21.6104 10.2052 21.748 10.0053 21.9177 9.88792C21.948 9.85694 22.0119 9.83629 21.9983 9.7793Z" fill="black"></path><path d="M6.7062 14.784C6.46157 14.786 6.21693 14.7824 5.97248 14.7858C5.97569 14.836 6.03031 14.832 6.06171 14.8497C6.13683 14.8731 6.20267 14.949 6.20071 15.0394C6.20124 15.2715 6.20107 15.5037 6.20089 15.7358C6.20393 15.8272 6.13824 15.9052 6.06205 15.9286C6.02958 15.9457 5.97838 15.9429 5.9707 15.992C6.21586 15.9983 6.4612 15.9924 6.70654 15.9951C6.73634 15.9904 6.77685 16.0067 6.79648 15.9719C6.75901 15.9489 6.71797 15.9356 6.67818 15.9193C6.61163 15.8905 6.55935 15.817 6.56203 15.7356C6.56096 15.517 6.56254 15.2983 6.5613 15.0797C6.55844 15.0195 6.56826 14.9552 6.60876 14.9115C6.65765 14.8491 6.73758 14.8477 6.797 14.8044C6.77416 14.7743 6.73635 14.7873 6.7062 14.784Z" fill="black"></path><path d="M8.22816 14.7812C8.04152 14.7896 7.85452 14.7798 7.66788 14.7862L7.67287 14.818C7.74924 14.8508 7.83543 14.9002 7.84418 15.0029C7.85024 15.2471 7.84541 15.4918 7.84666 15.7362C7.84969 15.8248 7.78727 15.9015 7.71375 15.9263C7.6786 15.9432 7.6313 15.944 7.61328 15.9879C7.73836 16.0024 7.8647 15.9904 7.99049 15.9948C8.02653 15.991 8.07007 16.0059 8.09951 15.9752C8.05954 15.939 8.0051 15.9183 7.98048 15.8647C7.95354 15.8139 7.95247 15.7531 7.95283 15.6961C7.95408 15.4809 7.95176 15.2658 7.9539 15.0507C7.99476 15.1365 8.01938 15.232 8.06595 15.3141L8.06078 15.3319C8.06631 15.3401 8.0772 15.3564 8.08273 15.3645C8.1632 15.5778 8.25207 15.7871 8.33414 15.9998C8.38624 15.9714 8.41515 15.9128 8.43817 15.8564C8.54291 15.5956 8.64709 15.3345 8.75255 15.074C8.75308 15.2878 8.7522 15.5017 8.75291 15.7156C8.75434 15.7831 8.74256 15.8572 8.69724 15.9058C8.66923 15.936 8.61767 15.9426 8.61214 15.9926C8.82714 15.997 9.04232 15.9928 9.25733 15.995C9.28713 15.9896 9.32923 16.0079 9.34779 15.9712C9.29319 15.9356 9.22556 15.9303 9.17667 15.8836C9.1376 15.8479 9.11226 15.793 9.11386 15.7364C9.11333 15.5041 9.11317 15.2717 9.1137 15.0396C9.1121 14.9602 9.15455 14.88 9.22236 14.8514C9.2509 14.8343 9.29356 14.8295 9.29891 14.7862C9.11727 14.7818 8.93544 14.7864 8.7538 14.7836C8.6644 14.9999 8.57948 15.2183 8.49169 15.4352C8.40266 15.2179 8.31808 14.9981 8.22816 14.7812Z" fill="black"></path><path d="M10.286 14.7842C10.2611 14.7841 10.236 14.7851 10.2143 14.8005C10.2434 14.8261 10.278 14.8412 10.3114 14.8587C10.3724 14.8904 10.4081 14.9667 10.4066 15.0404C10.4072 15.2719 10.4068 15.5037 10.4066 15.7354C10.41 15.826 10.3456 15.9034 10.2705 15.9276C10.2379 15.9459 10.1829 15.9418 10.1777 15.9934C10.4507 15.9954 10.7237 15.9954 10.9967 15.9936C10.9939 15.9473 10.9487 15.9475 10.9193 15.9334C10.847 15.9131 10.779 15.8504 10.7696 15.7646C10.7648 15.683 10.769 15.6012 10.7674 15.5195C10.8881 15.5195 11.0137 15.5261 11.1273 15.4733C11.2272 15.4302 11.3252 15.3539 11.363 15.2378C11.3962 15.1391 11.3645 15.0257 11.2991 14.953C11.1962 14.8358 11.0445 14.7868 10.9004 14.7848C10.7039 14.7838 10.5073 14.7854 10.3108 14.7842C10.3027 14.7844 10.2944 14.7842 10.286 14.7842ZM10.768 14.869C10.872 14.8755 10.9644 14.9593 10.9932 15.0703C11.023 15.1752 10.9882 15.2946 10.9146 15.3664C10.8925 15.3786 10.8723 15.3939 10.8522 15.4094C10.8247 15.4197 10.7967 15.427 10.7681 15.4316C10.7673 15.2439 10.7676 15.0564 10.768 14.869Z" fill="black"></path><path d="M12.7862 14.7555C12.8021 14.7958 12.8181 14.8364 12.8335 14.8773C12.7914 14.9787 12.7503 15.0806 12.7109 15.1833C12.703 15.2025 12.695 15.2216 12.6871 15.2409C12.611 15.4293 12.5366 15.6186 12.46 15.8069C12.4375 15.8631 12.3959 15.9111 12.3419 15.928C12.3087 15.9451 12.2577 15.9429 12.248 15.9917C12.381 15.9981 12.5143 15.9925 12.6472 15.9951C12.6772 15.9903 12.7178 16.0068 12.7375 15.9719C12.6859 15.9306 12.5899 15.9395 12.5765 15.8551C12.5801 15.7617 12.6311 15.6813 12.6623 15.5969C12.816 15.5997 12.9696 15.5967 13.1234 15.5985C13.1498 15.671 13.185 15.7399 13.205 15.8152C13.2182 15.8595 13.1959 15.9105 13.155 15.9232C13.1191 15.9445 13.0606 15.9389 13.0506 15.9933C13.2933 15.9943 13.5361 15.9977 13.7788 15.9915C13.7683 15.9429 13.717 15.9446 13.6837 15.9274C13.6237 15.9093 13.5825 15.8521 13.5604 15.7902C13.4228 15.4452 13.2845 15.1005 13.1466 14.7555C13.0264 14.7553 12.9063 14.7553 12.7862 14.7555ZM12.8916 15.02C12.9528 15.1733 13.0144 15.3263 13.0754 15.4798H12.7079C12.7689 15.3265 12.8301 15.1731 12.8916 15.02Z" fill="black"></path><path d="M15.2879 14.7842C15.1652 14.7835 15.0426 14.8159 14.9362 14.8854C14.7945 14.9751 14.6846 15.1348 14.6646 15.3175C14.6505 15.4188 14.6714 15.5204 14.7033 15.615C14.7075 15.6215 14.716 15.6346 14.7203 15.6412C14.8168 15.8523 15.0272 15.9776 15.2352 15.9923C15.4162 16.0054 15.6162 15.9577 15.7415 15.8016C15.7852 15.7427 15.8321 15.674 15.829 15.5935C15.7852 15.6416 15.7584 15.7063 15.7083 15.7476C15.5587 15.8874 15.3175 15.8684 15.1797 15.7178C14.9951 15.5214 15.0204 15.1386 15.2279 14.9739C15.3585 14.8711 15.5529 14.8933 15.6649 15.0194C15.7175 15.072 15.7454 15.1459 15.7868 15.2085C15.803 15.0913 15.7961 14.9707 15.7754 14.855C15.7329 14.8589 15.6913 14.8717 15.6487 14.8729C15.5991 14.8619 15.5534 14.8361 15.5054 14.8202C15.4351 14.7969 15.3615 14.7846 15.2879 14.7842Z" fill="black"></path><path d="M16.7955 14.7842C16.7951 14.906 16.796 15.0275 16.7949 15.1493C16.8163 15.1516 16.8378 15.1494 16.8429 15.121C16.8663 15.0646 16.8857 15.0013 16.9359 14.9667C17.0208 14.8976 17.1314 14.9251 17.2294 14.9201C17.2292 15.1921 17.2297 15.464 17.2292 15.7361C17.2322 15.8284 17.165 15.9066 17.0881 15.9295C17.0563 15.9456 17.0073 15.9446 16.9983 15.9911C17.2735 15.9946 17.5497 16.0012 17.8245 15.9877C17.787 15.9225 17.7003 15.9392 17.6533 15.8838C17.549 15.7883 17.6061 15.6241 17.588 15.4962C17.5879 15.4872 17.5875 15.4696 17.5872 15.4606C17.5945 15.2807 17.5881 15.1002 17.5904 14.9201C17.696 14.9237 17.8206 14.8959 17.9044 14.9874C17.9581 15.0315 17.9512 15.1268 18.0125 15.1606C18.0334 15.0371 18.0167 14.9093 18.0218 14.7842C17.613 14.784 17.2043 14.7844 16.7955 14.7842Z" fill="black"></path></g><defs><clipPath id="clip0_39_334"><rect width="20" height="8" fill="white" transform="translate(2 8)"></rect></clipPath></defs></svg> 