<?xml version="1.0" encoding="UTF-8"?> <svg xmlns="http://www.w3.org/2000/svg" width="24" height="24" viewBox="0 0 24 24" fill="none"><rect width="24" height="24" rx="12" fill="white"></rect><g clip-path="url(#clip0_39_371)"><path d="M2 11.7906C2 13.3258 2.0038 14.5813 2.00886 14.5813C2.01645 14.5813 3.04744 14.3902 3.17394 14.3649L3.23972 14.3522V13.3271V12.3032H3.63188H4.02404V12.1159C4.02404 12.0134 4.02783 11.7463 4.03289 11.521L4.04048 11.1135H3.64073H3.23972V10.6642V10.2149H3.70145C3.95572 10.2149 4.16319 10.2124 4.16319 10.2086C4.16319 10.1947 4.26439 9.11381 4.27071 9.05939L4.27831 8.9999H3.13852H2V11.7906Z" fill="black"></path><path d="M20.9216 9.16322L19.9121 9.24675V11.7679V14.289L19.9539 14.2953C19.9905 14.3016 21.945 14.4434 21.9842 14.4421C21.9956 14.4421 21.9994 14.308 21.9994 13.8156V13.1892H21.5693H21.1392V12.7335V12.2779H21.506H21.8729V11.7337V11.1895H21.4934H21.1139V10.8288V10.4681L21.143 10.463C21.1582 10.4592 21.2872 10.4542 21.4301 10.4491C21.5731 10.4453 21.759 10.439 21.8451 10.4339L21.9994 10.4263V9.75173V9.07589L21.9652 9.07716C21.945 9.07842 21.4757 9.11639 20.9216 9.16322Z" fill="black"></path><path d="M14.4408 9.33767C14.4535 9.46423 14.5977 11.3715 14.5952 11.3741C14.5939 11.3766 14.408 10.9197 14.1815 10.359C13.9563 9.79836 13.7666 9.33387 13.7615 9.32502C13.7539 9.31109 13.4048 9.37564 12.8317 9.49714L12.7773 9.50853V11.6841V13.8597H13.3403H13.9032L13.8969 13.7686C13.8842 13.599 13.8374 12.1967 13.8425 12.141C13.8463 12.0917 13.8842 12.1777 14.2435 13.0459C14.4611 13.5737 14.6458 14.0103 14.6508 14.0179C14.6584 14.0255 14.8343 14.0141 15.1328 13.9888C15.3921 13.9661 15.6047 13.9458 15.6047 13.9445C15.6059 13.9433 15.5996 13.0308 15.5908 11.917C15.5819 10.8033 15.5743 9.75153 15.5743 9.57814L15.573 9.26553H15.0038H14.4333L14.4408 9.33767Z" fill="black"></path><path d="M5.53576 9.34281C4.77928 9.39344 4.36309 9.91107 4.23152 10.9615C4.20496 11.1792 4.19357 11.9184 4.21255 12.1765C4.2758 13.0144 4.50224 13.5586 4.90451 13.8358C5.12083 13.9838 5.44594 14.0636 5.76726 14.0446C6.13285 14.0243 6.38206 13.9206 6.60597 13.6966C6.7894 13.513 6.88933 13.3409 6.98548 13.0473C7.11957 12.6372 7.18029 12.0247 7.14993 11.3868C7.11577 10.673 7.00825 10.2287 6.78687 9.88829C6.57561 9.56429 6.24164 9.37065 5.85202 9.34661C5.79003 9.34281 5.72425 9.33901 5.70654 9.33648C5.68883 9.33522 5.61293 9.33775 5.53576 9.34281ZM5.71413 10.3376C5.80648 10.4376 5.84569 10.8362 5.84569 11.6893C5.84569 12.7397 5.77991 13.1764 5.6357 13.0827C5.57371 13.041 5.52691 12.8372 5.50414 12.4993C5.48769 12.2525 5.48769 11.1223 5.50414 10.8856C5.52817 10.5515 5.57118 10.3667 5.6357 10.3224C5.67112 10.2971 5.67744 10.2984 5.71413 10.3376Z" fill="black"></path><path d="M7.3125 11.6439V13.9486H7.89315H8.47253L8.48012 13.7879C8.48518 13.698 8.4953 13.4069 8.50289 13.1386C8.51048 12.8703 8.5206 12.6349 8.52566 12.6159C8.53198 12.5893 8.58638 12.7602 8.75336 13.3373C8.8748 13.7537 8.97727 14.0992 8.98233 14.1043C8.99245 14.1157 10.179 14.022 10.1917 14.0093C10.1955 14.0043 10.0639 13.5904 9.89947 13.0867L9.60092 12.1729L9.66418 12.1172C9.87417 11.9337 10.0475 11.5793 10.0968 11.2288C10.1183 11.0756 10.1044 10.6959 10.0715 10.5555C9.94501 10.0049 9.60978 9.57713 9.1822 9.41767C8.99624 9.34932 9.01142 9.35059 8.13223 9.34553L7.3125 9.34046V11.6439ZM8.61674 10.4314C8.70655 10.4757 8.77993 10.5896 8.81914 10.7466C8.84571 10.8516 8.84191 11.1845 8.81282 11.2908C8.75842 11.4908 8.66228 11.6072 8.51807 11.6515L8.48897 11.6591V11.0263V10.3922L8.53072 10.4011C8.55222 10.4049 8.59144 10.4188 8.61674 10.4314Z" fill="black"></path><path d="M10.1348 9.94271V10.5312H10.4573H10.7799V12.2272V13.9231H11.3871H11.9943V12.3284V10.7337H12.3233H12.6522V10.1452V9.5567L12.6243 9.55164C12.5978 9.54531 10.1854 9.35293 10.1512 9.3542C10.1386 9.3542 10.1348 9.48076 10.1348 9.94271Z" fill="black"></path><path d="M15.8398 11.7778V14.075H16.466H17.0922V11.7778V9.48074H16.466H15.8398V11.7778Z" fill="black"></path><path d="M18.5208 9.64019C17.8351 9.67689 17.2646 9.70727 17.2532 9.70727C17.2317 9.70853 17.2305 9.74524 17.2305 10.3034V10.8982H17.553H17.8756V12.5625V14.2268H18.4892H19.1027V12.4929V10.759H19.4443H19.7858V10.1642C19.7858 9.83636 19.782 9.57058 19.777 9.57058C19.7706 9.57185 19.2064 9.60222 18.5208 9.64019Z" fill="black"></path></g><defs><clipPath id="clip0_39_371"><rect width="20" height="5.5814" fill="white" transform="translate(2 9)"></rect></clipPath></defs></svg> 