<?xml version="1.0" encoding="UTF-8"?> <svg xmlns="http://www.w3.org/2000/svg" width="24" height="24" viewBox="0 0 24 24" fill="none"><rect width="24" height="24" rx="12" fill="black"></rect><path d="M7.96247 11.7593C9.2031 9.92803 10.3968 8.85928 10.3968 8.85928C10.3968 8.85928 9.08122 7.33115 7.49685 6.75303L7.39372 6.72803C6.06117 7.89319 5.2192 9.51969 5.03716 11.2804C4.85511 13.0411 5.34649 14.8055 6.41247 16.2187C6.41247 16.0812 6.43122 14.0218 7.96247 11.7593Z" fill="white"></path><path d="M18.9999 11.9999C19.0006 11.0012 18.7874 10.0139 18.3744 9.10451C17.9615 8.19513 17.3586 7.38478 16.6062 6.72803L16.5062 6.75615C14.9218 7.33428 13.603 8.8624 13.603 8.8624C13.603 8.8624 14.7968 9.93115 16.0374 11.7624C17.5687 14.0249 17.5874 16.0843 17.5843 16.2218C18.5056 15.0074 19.0029 13.5242 18.9999 11.9999Z" fill="white"></path><path d="M10.2873 6.52813C11.2029 6.9375 11.9936 7.60938 11.9936 7.60938C11.9936 7.60938 12.7904 6.94063 13.7061 6.52813C14.8561 6.0125 15.7342 6.175 15.9654 6.23125C14.7985 5.4293 13.4158 5 11.9998 5C10.5838 5 9.20115 5.4293 8.03418 6.23125C8.25918 6.175 9.13418 6.00938 10.2873 6.52813Z" fill="white"></path><path d="M15.2095 13.1531C13.7626 11.375 11.9938 10.2188 11.9938 10.2188C11.9938 10.2188 10.2345 11.375 8.78447 13.1531C7.54072 14.6812 7.07822 15.8031 6.82822 16.5219L6.7876 16.6719C7.44413 17.4043 8.24765 17.9902 9.14578 18.3913C10.0439 18.7923 11.0165 18.9996 12.0001 18.9996C12.9837 18.9996 13.9563 18.7923 14.8544 18.3913C15.7525 17.9902 16.5561 17.4043 17.2126 16.6719L17.1688 16.5219C16.9188 15.8031 16.4532 14.6812 15.2095 13.1531Z" fill="white"></path></svg> 