<?xml version="1.0" encoding="UTF-8"?> <svg xmlns="http://www.w3.org/2000/svg" width="24" height="24" viewBox="0 0 24 24" fill="none"><rect width="24" height="24" rx="12" fill="#FF7F00"></rect><g clip-path="url(#clip0_39_602)"><path d="M17.4284 7.67445H14.5094V6.82168C14.5094 5.8157 13.7347 5 12.7792 5H11.2208C10.265 5 9.4906 5.8157 9.4906 6.82168V7.67445H6.57158L6 17H18L17.4284 7.67445ZM10.3536 6.82168C10.3536 6.31726 10.7417 5.9086 11.2208 5.9086H12.7792C13.2583 5.9086 13.6464 6.31726 13.6464 6.82168V7.67445H10.3536V6.82168ZM6.92064 16.091L7.38076 8.58346H9.4906V10.3118C9.4906 10.3477 9.51808 10.3766 9.55213 10.3766H10.292C10.3261 10.3766 10.3536 10.3477 10.3536 10.3118V8.58346H13.6464V10.3118C13.6464 10.3477 13.6739 10.3766 13.708 10.3766H14.4479C14.4819 10.3766 14.5094 10.3477 14.5094 10.3118V8.58346H16.6192L17.0794 16.091H6.92064Z" fill="white"></path></g><defs><clipPath id="clip0_39_602"><rect width="12" height="12" fill="white" transform="translate(6 5)"></rect></clipPath></defs></svg> 