<?xml version="1.0" encoding="UTF-8"?> <svg xmlns="http://www.w3.org/2000/svg" width="20" height="20" viewBox="0 0 20 20" fill="none"><rect width="20" height="20" rx="10" fill="black"></rect><path fill-rule="evenodd" clip-rule="evenodd" d="M2.08268 3.3335H17.916C18.146 3.3335 18.3327 3.52016 18.3327 3.75016V5.41683C18.3327 5.64683 18.146 5.8335 17.916 5.8335C17.4068 5.8335 16.9423 6.12558 16.7218 6.58475L11.7839 16.8643C11.7114 16.9993 11.5706 17.0835 11.4173 17.0835H9.42352C9.2656 17.0835 9.12143 16.9943 9.05102 16.8531L4.49477 7.32391C4.0381 6.41058 3.10393 5.8335 2.08268 5.8335C1.85268 5.8335 1.66602 5.64683 1.66602 5.41683V3.75016C1.66602 3.52016 1.85268 3.3335 2.08268 3.3335Z" fill="url(#paint0_linear_39_412)"></path><path fill-rule="evenodd" clip-rule="evenodd" d="M2.5 4.718V4.58341C2.5 4.35341 2.68667 4.16675 2.91667 4.16675H10.4167C10.6467 4.16675 10.8333 4.35341 10.8333 4.58341V4.67466C10.8333 4.86591 10.7033 5.03258 10.5179 5.07883L10.1746 5.16466C9.6575 5.29383 9.39292 5.86883 9.63125 6.34591L11.4417 9.96675C11.5246 10.1326 11.7671 10.1155 11.8258 9.93966L13.0117 6.38175C13.1892 5.84883 12.9012 5.27258 12.3683 5.09508C12.1979 5.03841 12.0833 4.87925 12.0833 4.69966V4.58341C12.0833 4.35341 12.27 4.16675 12.5 4.16675H17.1088C17.3246 4.16675 17.5 4.34216 17.5 4.558V4.718C17.5 4.88633 17.3921 5.03591 17.2325 5.08925C16.6033 5.29883 16.0833 5.75008 15.7871 6.343L11.3612 16.0067C11.2933 16.1551 11.1454 16.2501 10.9825 16.2501H9.84542C9.685 16.2501 9.53917 16.158 9.46958 16.0138L5.35542 7.44258C4.85875 6.40758 3.99167 5.59675 2.92583 5.1705L2.76167 5.10466C2.60375 5.04175 2.5 4.88841 2.5 4.718Z" fill="white"></path><path fill-rule="evenodd" clip-rule="evenodd" d="M16.505 4.5835H13.0309C12.8988 4.5835 12.8571 4.76141 12.975 4.82016L13.1392 4.90225C13.7209 5.19308 13.9821 5.881 13.7409 6.48433L13.168 7.91683L11.8342 11.251C11.7684 11.4156 11.5405 11.4281 11.4567 11.2718L8.93837 6.54975C8.60754 5.92933 8.85337 5.15808 9.48212 4.8435C9.61129 4.77891 9.56546 4.58391 9.42087 4.58391H3.95796C3.78296 4.58391 3.71921 4.81433 3.86921 4.90433C4.87837 5.50975 5.68046 6.406 6.17087 7.476L9.89004 15.5906C9.95796 15.7385 10.1059 15.8335 10.2688 15.8335H10.5617C10.7275 15.8335 10.8775 15.7352 10.9438 15.5831L14.8625 6.57433C15.223 5.8235 15.823 5.21391 16.5684 4.84183C16.6971 4.77725 16.6488 4.5835 16.505 4.5835Z" fill="url(#paint1_linear_39_412)"></path><defs><linearGradient id="paint0_linear_39_412" x1="9.99935" y1="3.39433" x2="9.99935" y2="17.101" gradientUnits="userSpaceOnUse"><stop stop-color="#4C4C4C"></stop><stop offset="1" stop-color="#343434"></stop></linearGradient><linearGradient id="paint1_linear_39_412" x1="6.14921" y1="3.02808" x2="15.3846" y2="12.2639" gradientUnits="userSpaceOnUse"><stop stop-color="#4CAF50"></stop><stop offset="0.133" stop-color="#4AAE50"></stop><stop offset="0.239" stop-color="#43A94E"></stop><stop offset="0.373" stop-color="#38A14C"></stop><stop offset="0.482" stop-color="#279648"></stop><stop offset="0.621" stop-color="#118844"></stop><stop offset="1" stop-color="#088242"></stop></linearGradient></defs></svg> 