<?xml version="1.0" encoding="UTF-8"?> <svg xmlns="http://www.w3.org/2000/svg" width="22" height="20" viewBox="0 0 22 20" fill="none"><path d="M19.8281 0.5H2.17192C1.25035 0.5 0.5 1.25835 0.5 2.18935V14.0478C0.5 14.9797 1.25035 15.7372 2.17192 15.7372H8.83377L7.23373 17.4331C7.12065 17.5934 7.06008 17.7842 7.06008 17.9808V18.5558C7.06008 18.8061 7.15862 19.0457 7.33389 19.2233C7.50915 19.4009 7.74662 19.5 7.99377 19.5H14.007C14.255 19.5 14.4925 19.4009 14.6669 19.2233C14.8414 19.0457 14.9399 18.8061 14.9407 18.5558V17.9808C14.9407 17.7842 14.8802 17.5934 14.7671 17.4331L13.167 15.7372H19.8289C20.7505 15.7372 21.5008 14.9788 21.5008 14.0478V2.18935C21.5 1.25835 20.7505 0.5 19.8281 0.5ZM19.6326 13.8504H11.0008H2.36738V2.38761H19.6334V13.8512L19.6326 13.8504Z" fill="white"></path></svg> 