<?xml version="1.0" encoding="UTF-8"?> <svg xmlns="http://www.w3.org/2000/svg" width="24" height="24" viewBox="0 0 24 24" fill="none"><rect width="24" height="24" rx="12" fill="white"></rect><path d="M10.1519 19.1702C3.53689 17.4655 2.99408 17.3225 3.00005 17.2927C3.00601 17.2569 6.66845 3.00596 6.67441 3C6.67441 3 9.89545 3.82252 13.8263 4.83576C17.7572 5.849 20.9842 6.67152 20.9901 6.67152C21.002 6.67152 21.002 6.69536 20.9961 6.72516C20.9841 6.81456 17.3277 20.988 17.3158 21C17.3158 21.0059 14.0888 20.1834 10.1519 19.1702ZM13.3968 12.3934C13.5877 11.6424 13.7488 11.0165 13.7547 10.9987C13.7607 10.9689 13.6175 10.9271 12.3709 10.6053C11.6074 10.4086 10.9691 10.2536 10.9632 10.2596C10.9453 10.2775 10.2414 13.0371 10.2474 13.043C10.2593 13.0549 13.033 13.7702 13.0389 13.7642C13.0389 13.7583 13.2 13.1444 13.3968 12.3934Z" fill="#E2231A"></path></svg> 