<?xml version="1.0" encoding="UTF-8"?> <svg xmlns="http://www.w3.org/2000/svg" width="40" height="40" viewBox="0 0 40 40" fill="none"><g clip-path="url(#clip0_39_312)"><path d="M41.1231 33.328C41.1231 37.1228 38.1083 40.0719 34.2583 40.0719H5.71944C1.86944 40.0926 -1.125 37.1228 -1.125 33.328V7.65142C-1.125 3.85665 1.91019 0.866211 5.80093 0.866211H34.3602C38.1694 0.866211 41.1435 3.83603 41.1435 7.65142V33.328H41.1231Z" fill="#FFAB00"></path><path d="M33.241 25.1818H29.5947L28.9632 21.1602L26.6206 25.1405H22.9336L25.1743 27.5329L23.341 31.5545L27.3743 29.1209L30.5317 31.5958L29.941 27.5329" fill="white"></path><path d="M35.7866 24.3773H30.2663L29.3903 18.8089L26.1718 24.336H25.5607C25.194 23.6967 25.0514 22.7686 25.0514 22.1911C25.0514 21.2425 25.1126 20.3144 25.1126 19.0976C25.1126 17.4889 24.644 16.6434 23.4014 16.334V16.2928C26.0292 15.9215 27.2311 14.1479 27.2311 11.673C27.2311 8.14638 24.9089 7.3833 21.8737 7.3833H13.7052L10.2422 23.9648H14.5811L15.844 17.922H18.7366C20.2848 17.922 20.9163 18.6851 20.9163 20.1494C20.9163 21.2631 20.794 22.1499 20.794 22.9955C20.794 23.3048 20.8552 24.0473 21.0792 24.336L24.2163 27.6977L21.507 33.5755L27.2922 30.09L31.6107 33.4517L30.8163 27.9039L35.7866 24.3773ZM20.0403 14.8285H16.5774L17.4126 10.8275H20.6311C21.7718 10.8275 22.9737 11.1368 22.9737 12.5392C22.9737 14.3335 21.6089 14.8285 20.0403 14.8285ZM27.3737 29.1207L23.3403 31.5543L25.194 27.5533L22.9533 25.161H26.6403L28.9626 21.1806L29.594 25.2022H33.2607L29.9607 27.5327L30.5514 31.6162L27.3737 29.1207Z" fill="#040301"></path></g><defs><clipPath id="clip0_39_312"><rect width="44" height="41" fill="white" transform="translate(-2)"></rect></clipPath></defs></svg> 