<?xml version="1.0" encoding="UTF-8"?> <svg xmlns="http://www.w3.org/2000/svg" width="24" height="24" viewBox="0 0 24 24" fill="none"><g clip-path="url(#clip0_5_1609)"><rect width="24" height="24" rx="12" fill="#14487B"></rect><g clip-path="url(#clip1_5_1609)"><path fill-rule="evenodd" clip-rule="evenodd" d="M15.097 3.6001C12.5141 3.6001 10.4066 5.73078 10.3867 8.3575L7.45326 12.6459C6.63492 12.5703 5.92912 12.7431 5.30522 13.1311L-1.6985 9.70596C-3.27776 12.0989 -1.6985 14.4911 -1.6985 14.4911L3.66395 16.9736C4.0069 18.5859 5.42081 19.8001 7.09347 19.8001C8.91234 19.8001 10.4196 18.3753 10.585 16.5609L15.1008 13.1951C17.6913 13.1951 19.7988 11.0529 19.7988 8.39607L19.798 8.3953C19.7988 5.75084 17.6913 3.6001 15.097 3.6001ZM7.09347 18.8458C6.10059 18.8458 5.24628 18.2765 4.81223 17.4457L6.08069 17.9602C7.13481 18.403 8.33284 17.8754 8.75388 16.8C8.9576 16.2863 8.95173 15.7122 8.73753 15.2028C8.52334 14.6934 8.11817 14.2898 7.61019 14.08L6.53541 13.6372C6.71848 13.595 6.90568 13.5738 7.09347 13.5739C8.52728 13.5739 9.67556 14.7457 9.67556 16.2091C9.67556 17.6725 8.52728 18.8451 7.09347 18.8451V18.8458ZM15.1015 11.6106C13.3577 11.6106 11.9407 10.1765 11.9407 8.39684C11.9407 6.62487 13.3539 5.18307 15.1015 5.18307C16.8331 5.18307 18.2501 6.62564 18.2501 8.39684C18.2501 10.1812 16.8324 11.6152 15.1015 11.6106ZM15.11 5.81718C13.7175 5.81718 12.5899 6.96893 12.5899 8.38913C12.5899 9.80933 13.7137 10.9611 15.11 10.9611C16.494 10.9611 17.6301 9.81395 17.6301 8.38913C17.6301 6.9643 16.494 5.81718 15.11 5.81718Z" fill="white"></path></g></g><defs><clipPath id="clip0_5_1609"><rect width="24" height="24" rx="12" fill="white"></rect></clipPath><clipPath id="clip1_5_1609"><rect width="22.2" height="16.2" fill="white" transform="translate(-2.40039 3.6001)"></rect></clipPath></defs></svg> 