<?xml version="1.0" encoding="UTF-8"?> <svg xmlns="http://www.w3.org/2000/svg" width="24" height="24" viewBox="0 0 24 24" fill="none"><path d="M4.99415 21.7398C-0.3859 17.8693 -1.61069 10.371 2.25845 4.99181C6.12736 -0.387281 13.6256 -1.61034 19.0058 2.26018C24.3858 6.13054 25.6107 13.6288 21.7417 19.0082C17.8726 24.3873 10.3745 25.6103 4.99415 21.7398Z" fill="url(#paint0_linear_39_559)"></path><path d="M16.2748 17.7178C17.0347 17.4959 17.5711 16.9578 17.7907 16.1977L17.8555 15.9744L17.864 9.98199C17.8703 5.4944 17.8642 3.9617 17.8392 3.87804C17.8128 3.78935 17.771 3.71497 17.7164 3.65618C17.6359 3.60684 17.5392 3.58084 17.4297 3.58101C17.3542 3.58101 17.0918 3.61724 16.8471 3.66155C15.7646 3.8578 9.38353 5.12315 9.27453 5.16328C9.10592 5.22534 8.9389 5.37281 8.85964 5.52933L8.79248 5.66193C8.79248 5.66193 8.76075 15.0546 8.71187 15.1603C8.63755 15.3212 8.47252 15.4736 8.32037 15.5222C8.24827 15.5453 7.96334 15.6089 7.68675 15.6637C6.40644 15.9173 5.93098 16.1001 5.52876 16.4933C5.30031 16.7165 5.13113 17.0212 5.05801 17.341C4.98806 17.6467 5.01145 18.1041 5.11109 18.3822C5.21549 18.6731 5.38353 18.9215 5.60324 19.117C5.80296 19.2702 6.03873 19.3843 6.3038 19.452C6.88985 19.6014 7.98707 19.4352 8.54797 19.1122C8.78255 18.977 9.08429 18.6937 9.2412 18.4607C9.30342 18.3684 9.39676 18.1828 9.44904 18.0478C9.63173 17.5754 9.63747 9.1611 9.6608 9.05511C9.70043 8.87525 9.8239 8.74361 9.99405 8.6989C10.1474 8.65883 16.2917 7.44933 16.4647 7.42519C16.6168 7.40417 16.7605 7.45295 16.8389 7.54915C16.8855 7.57402 16.9247 7.60754 16.9523 7.6488C17.0022 7.72279 17.0052 7.86907 17.0126 10.5331C17.0211 13.5993 17.025 13.5275 16.8575 13.721C16.7357 13.8617 16.5838 13.9162 15.9592 14.0431C15.0091 14.2362 14.6839 14.3279 14.32 14.5047C13.8656 14.7258 13.6133 14.9678 13.4183 15.37C13.2804 15.6544 13.2289 15.8676 13.2293 16.1507C13.2301 16.6571 13.4056 17.0526 13.8012 17.4399C13.8377 17.4755 13.8735 17.5087 13.9096 17.5399C14.1089 17.6934 14.3122 17.7859 14.5678 17.8445C14.9533 17.9329 15.7379 17.8747 16.2748 17.7178Z" fill="url(#paint1_linear_39_559)"></path><defs><linearGradient id="paint0_linear_39_559" x1="4.44398" y1="2.67235" x2="19.4759" y2="21.3894" gradientUnits="userSpaceOnUse"><stop stop-color="white"></stop><stop offset="0.5368" stop-color="#EEEEEE"></stop><stop offset="1" stop-color="#E5E5E5"></stop></linearGradient><linearGradient id="paint1_linear_39_559" x1="4.80715" y1="2.54361" x2="19.2265" y2="21.3409" gradientUnits="userSpaceOnUse"><stop stop-color="#FF5E4E"></stop><stop offset="0.249" stop-color="#FF5C6D"></stop><stop offset="0.3765" stop-color="#FF658C"></stop><stop offset="0.497" stop-color="#CA7FB2"></stop><stop offset="0.6267" stop-color="#9D6CFF"></stop><stop offset="0.7628" stop-color="#2CBCFC" stop-opacity="0.9176"></stop><stop offset="1" stop-color="#00C7FF"></stop></linearGradient></defs></svg> 