<?xml version="1.0" encoding="UTF-8"?> <svg xmlns="http://www.w3.org/2000/svg" width="19" height="19" viewBox="0 0 19 19" fill="none"><path d="M3.24773 16.651C4.9172 18.114 7.10663 19 9.5 19C11.8015 19.0034 14.0255 18.1683 15.7561 16.651C17.2419 15.1373 12.3392 9.7565 9.5 7.61267C6.66457 9.7565 1.75813 15.1373 3.24773 16.651ZM12.0827 5.2459C14.0619 7.58987 18.0076 13.4102 16.8929 15.4679C18.2102 13.8383 19 11.7648 19 9.50317C19 6.859 17.9195 4.46627 16.1741 2.7455C16.1741 2.7455 16.1525 2.7284 16.1088 2.71193C16.0373 2.68732 15.9621 2.67532 15.8865 2.67647C15.4179 2.67647 14.3152 3.01973 12.0827 5.2459ZM2.89307 2.71257C2.8481 2.7284 2.82783 2.74487 2.8253 2.74613C1.08047 4.4669 0 6.859 0 9.50317C0 11.7629 0.7904 13.8358 2.10647 15.4666C0.9975 13.4045 4.94 7.5886 6.9198 5.2459C4.6873 3.0191 3.58213 2.6771 3.11473 2.6771C3.01087 2.6771 2.93803 2.69357 2.89243 2.71383V2.71193L2.89307 2.71257ZM9.5 2.81137C9.5 2.81137 7.1687 1.44717 5.34787 1.38257C4.63283 1.3566 4.1971 1.61627 4.1439 1.6511C5.84187 0.511733 7.64687 0 9.48733 0H9.5C11.3481 0 13.1455 0.511733 14.8567 1.65047C14.8029 1.61373 14.3697 1.35597 13.6534 1.38193C11.8326 1.44717 9.5 2.8063 9.5 2.8063V2.81137Z" fill="white"></path></svg> 